<?xml version="1.0" encoding="UTF-8" standalone="no"?>
<!-- Created with Inkscape (http://www.inkscape.org/) -->

<svg
   xmlns:dc="http://purl.org/dc/elements/1.1/"
   xmlns:cc="http://creativecommons.org/ns#"
   xmlns:rdf="http://www.w3.org/1999/02/22-rdf-syntax-ns#"
   xmlns:svg="http://www.w3.org/2000/svg"
   xmlns="http://www.w3.org/2000/svg"
   xmlns:sodipodi="http://sodipodi.sourceforge.net/DTD/sodipodi-0.dtd"
   xmlns:inkscape="http://www.inkscape.org/namespaces/inkscape"
   width="210mm"
   height="210mm"
   viewBox="0 0 744.09449 744.09448"
   id="svg2"
   version="1.1"
   inkscape:version="0.91 r13725"
   sodipodi:docname="vert_contour_img.svg">
  <defs
     id="defs4">
    <filter
       style="color-interpolation-filters:sRGB;"
       inkscape:label="Greyscale"
       id="filter4175">
      <feColorMatrix
         values="0.21 0.72 0.072 0 0 0.21 0.72 0.072 0 0 0.21 0.72 0.072 0 0 0 0 0 1 0 "
         id="feColorMatrix4177"
         result="fbSourceGraphic" />
      <feColorMatrix
         result="fbSourceGraphicAlpha"
         in="fbSourceGraphic"
         values="0 0 0 -1 0 0 0 0 -1 0 0 0 0 -1 0 0 0 0 1 0"
         id="feColorMatrix4179" />
      <feColorMatrix
         id="feColorMatrix4181"
         values="0.21 0.72 0.072 0 0 0.21 0.72 0.072 0 0 0.21 0.72 0.072 0 0 0 0 0 1 0 "
         in="fbSourceGraphic" />
    </filter>
  </defs>
  <sodipodi:namedview
     id="base"
     pagecolor="#ffffff"
     bordercolor="#666666"
     borderopacity="1.0"
     inkscape:pageopacity="0.0"
     inkscape:pageshadow="2"
     inkscape:zoom="0.7"
     inkscape:cx="-46.428571"
     inkscape:cy="405.71429"
     inkscape:document-units="px"
     inkscape:current-layer="g4166"
     showgrid="false"
     inkscape:window-width="1920"
     inkscape:window-height="1018"
     inkscape:window-x="-8"
     inkscape:window-y="-8"
     inkscape:window-maximized="1" />
  <metadata
     id="metadata7">
    <rdf:RDF>
      <cc:Work
         rdf:about="">
        <dc:format>image/svg+xml</dc:format>
        <dc:type
           rdf:resource="http://purl.org/dc/dcmitype/StillImage" />
        <dc:title></dc:title>
      </cc:Work>
    </rdf:RDF>
  </metadata>
  <g
     inkscape:label="Layer 1"
     inkscape:groupmode="layer"
     id="layer1"
     transform="translate(0,-308.26772)">
    <g
       id="g4166"
       transform="matrix(0.71701309,0,0,0.74494194,112.30726,552.82614)"
       style="filter:url(#filter4175)">
      <path
         style="fill:#000000"
         d="m 305.88355,498.62425 c -4.96339,-2.1612 -7.29685,-7.74348 -6.4346,-15.39332 0.88211,-7.82615 5.0693,-11.58303 12.90972,-11.58303 6.41128,0 11.72868,4.0665 11.77593,9.00569 0.0211,2.20948 0.56245,1.69129 2.35391,-2.25339 2.54385,-5.60137 4.39252,-6.7523 10.84588,-6.7523 4.04982,0 4.27276,-0.22827 4.27276,-4.375 0,-4.02777 0.29763,-4.375 3.75,-4.375 l 3.75,0 0,17.9529 0,17.9529 -6.90838,0.81194 c -5.06527,0.59533 -7.89993,0.29919 -10.625,-1.11 -2.04413,-1.05706 -3.72509,-2.04811 -3.73545,-2.20233 -0.01,-0.15423 -0.82941,-2.5304 -1.82012,-5.2804 -1.64455,-4.56487 -1.80609,-4.69369 -1.85619,-1.48033 -0.0799,5.126 -1.97996,7.91035 -6.465,9.47385 -5.02705,1.75243 -7.0418,1.68555 -11.81346,-0.39218 z m 12.05577,-3.27032 c 1.32981,-0.71169 2.41783,-2.2431 2.41783,-3.40314 0,-1.67067 -0.41449,-1.51739 -1.99377,0.73735 -2.94622,4.20631 -10.48428,3.40389 -12.75549,-1.35781 -0.9031,-1.89341 -1.29578,-4.00279 -0.8726,-4.6875 0.42317,-0.68471 4.45343,-1.24493 8.95615,-1.24493 l 8.18673,0 -0.86101,-3.43051 c -0.98952,-3.9426 -2.89158,-6.56949 -4.7568,-6.56949 -0.70987,0 -0.35975,1.02867 0.77805,2.28593 4.12668,4.55992 2.71086,6.46407 -4.80626,6.46407 -5.95679,0 -6.875,-0.32197 -6.875,-2.41071 0,-1.3259 0.97432,-3.38505 2.16517,-4.5759 1.64387,-1.64385 1.7191,-2.02517 0.3125,-1.5837 -1.01897,0.3198 -2.88841,2.67074 -4.1543,5.22429 -3.80241,7.67019 0.43398,15.71719 8.3213,15.80627 1.93583,0.0219 4.6077,-0.54253 5.9375,-1.25422 z m 19.61898,0.39997 c -4.39587,-0.66688 -7.20115,-4.71645 -7.20115,-10.39522 0,-4.7864 1.601,-7.5664 5.625,-9.76736 1.375,-0.75207 1.87274,-1.3845 1.10608,-1.4054 -2.54627,-0.0695 -7.68811,4.87451 -8.52102,8.19307 -1.01767,4.05478 1.26743,11.33535 4.0712,12.97126 1.15155,0.67189 3.49999,1.15445 5.21874,1.07235 2.98611,-0.14265 2.97282,-0.17236 -0.29885,-0.6687 z m 9.04885,-14.106 c 0,-9.16666 -0.48611,-15 -1.25,-15 -0.6875,0 -1.25,1.96875 -1.25,4.375 0,3.68767 -0.43646,4.375 -2.77814,4.375 l -2.77812,0 2.72822,1.91093 c 3.66914,2.56996 4.85208,9.40453 2.45828,14.203 -1.69604,3.3998 -1.67853,3.80389 0.18639,4.29929 1.1321,0.30072 2.19899,0.61203 2.37087,0.69178 0.17187,0.0797 0.3125,-6.605 0.3125,-14.855 z m -31.25,8.61627 c 0,-0.61394 -1.40625,-1.11627 -3.125,-1.11627 -3.24854,0 -4.28747,1.88618 -1.5625,2.8367 2.01017,0.70119 4.6875,-0.28146 4.6875,-1.72043 z m 26.00809,-4.50893 c -0.71304,-8.33702 -7.67475,-8.75937 -7.67475,-0.46561 0,5.19515 2.46538,7.93775 5.6185,6.25025 1.85751,-0.9941 2.34796,-2.37383 2.05625,-5.78464 z m -26.63309,-5.35734 c -0.4249,-0.6875 -1.5499,-1.25 -2.5,-1.25 -0.9501,0 -2.0751,0.5625 -2.5,1.25 -0.43989,0.71175 0.63661,1.25 2.5,1.25 1.86339,0 2.93989,-0.53825 2.5,-1.25 z m -0.96354,-5.75521 c -0.41537,-0.41536 -1.4935,-0.45976 -2.39584,-0.0986 -0.99716,0.39902 -0.70097,0.69522 0.75522,0.7552 1.3177,0.0543 2.05599,-0.24117 1.64062,-0.65653 z m 55.86494,23.98156 c -7.71531,-3.35946 -9.23468,-18.29068 -2.45466,-24.1226 6.9391,-5.96877 19.42826,-2.42871 19.42826,5.50695 0,2.36619 -0.6677,2.8893 -3.68789,2.8893 -2.20452,0 -4.1888,-0.87987 -4.93324,-2.1875 -0.98732,-1.73426 -1.71242,-1.90227 -3.49961,-0.8109 -3.07334,1.87678 -3.66937,9.53655 -0.91966,11.81862 1.8277,1.51686 2.42181,1.31012 4.79766,-1.66949 4.63388,-5.81144 9.51308,-3.6323 7.73444,3.45434 -0.80597,3.21127 -6.43952,6.93143 -10.36712,6.84601 -1.23727,-0.0269 -3.98145,-0.80304 -6.09818,-1.72473 z m 12.07776,-4.58051 c 1.4323,-1.4323 2.26311,-2.94524 1.84625,-3.36208 -0.41685,-0.41685 -1.62062,0.47377 -2.67504,1.97916 -2.57973,3.68308 -8.48633,3.66121 -11.0795,-0.041 -2.71149,-3.87122 -2.42666,-10.02349 0.64485,-13.92829 1.4249,-1.81146 2.0193,-3.29358 1.32088,-3.29358 -4.98095,0 -7.02339,14.38822 -2.6616,18.75 3.26264,3.26264 9.28715,3.21286 12.60416,-0.10412 z m -0.0791,-16.74062 c -0.86961,-1.04788 -2.07478,-1.90522 -2.67809,-1.90522 -0.60333,0 -0.11263,1.03125 1.09055,2.29167 2.57786,2.70062 3.88545,2.38232 1.58757,-0.38645 z m 22.88585,21.33217 c -5.13189,-2.30949 -6.66089,-5.35132 -6.66089,-13.25136 0,-5.43834 0.56271,-6.99105 3.65385,-10.08218 2.93291,-2.93291 4.72101,-3.646 9.0625,-3.6141 8.84155,0.065 12.28365,4.34817 12.28365,15.28518 0,5.46301 -0.55786,7.26337 -2.94575,9.50669 -3.75226,3.52506 -10.30991,4.44343 -15.39333,2.15577 z m 11.81093,-3.93326 c 1.52802,-1.07024 2.77818,-2.58255 2.77818,-3.36071 0,-0.77815 -1.14691,-0.18375 -2.5487,1.32088 -3.54991,3.81039 -9.30955,3.62718 -11.93493,-0.37965 -3.45763,-5.27702 -1.6589,-6.88465 7.70313,-6.88465 7.05311,0 8.18415,-0.29662 7.53924,-1.97723 -0.41732,-1.08748 -0.75874,-2.45355 -0.75874,-3.03572 0,-1.42273 -3.63739,-4.98705 -5.08929,-4.98705 -0.63838,0 -0.0358,1.125 1.33929,2.5 4.66039,4.66039 3.3162,6.41793 -4.58875,5.99988 -7.89914,-0.41774 -9.38765,-2.02348 -5.48938,-5.92175 1.41797,-1.41796 2.1028,-2.57813 1.52187,-2.57813 -0.58095,0 -2.12783,1.18405 -3.4375,2.63124 -3.59283,3.97003 -3.27167,13.11863 0.56974,16.2292 3.57357,2.8937 8.63914,3.07501 12.39588,0.44369 z m -4.1991,-2.56286 c 3.31518,-1.27214 2.20839,-2.99127 -1.92577,-2.99127 -3.32766,0 -3.67365,0.27642 -2.34695,1.875 1.78542,2.15132 1.66051,2.11868 4.27276,1.11627 z m 7.8887,-3.74648 c -0.41537,-0.41536 -1.4935,-0.45976 -2.39583,-0.0986 -0.99717,0.39902 -0.70098,0.69522 0.75521,0.7552 1.3177,0.0543 2.05599,-0.24117 1.64062,-0.65653 z m -6.53642,-7.99479 c -0.4249,-0.6875 -1.83115,-1.25 -3.125,-1.25 -1.29385,0 -2.7001,0.5625 -3.125,1.25 -0.45194,0.73125 0.84494,1.25 3.125,1.25 2.28006,0 3.57694,-0.51875 3.125,-1.25 z m 17.1985,19.17322 c -5.25534,-1.11468 -9.44106,-11.67322 -4.62763,-11.67322 1.76118,0 1.76118,-0.2637 0,-2.77813 -4.81473,-6.874 -0.27791,-13.47187 9.26354,-13.47187 6.41446,0 9.21354,1.675 10.71746,6.41347 0.47787,1.50558 0.23579,3.02247 -0.56091,3.51486 -1.00289,0.61982 -0.85689,1.95806 0.51328,4.7046 2.07513,4.1597 1.20777,8.53637 -2.26248,11.41644 -2.15574,1.78908 -8.88495,2.75583 -13.04326,1.87385 z m 5.00526,-3.82625 c -2.30496,-0.2865 -4.86015,-1.66494 -5.9375,-3.20308 -1.5252,-2.17754 -1.89126,-2.29542 -1.89126,-0.60914 0,2.76128 3.47834,4.67798 8.125,4.47719 l 3.75,-0.16202 -4.04624,-0.50295 z m 8.42124,-5.34697 c 0,-2.95366 -2.09578,-4.48036 -8.50188,-6.19329 -6.13712,-1.64102 -8.03843,-4.58894 -4.58731,-7.11247 2.04181,-1.49301 2.06877,-1.69424 0.22692,-1.69424 -2.60378,0 -4.18669,5.65615 -2.23952,8.00237 0.78507,0.94593 4.00205,2.36818 7.14887,3.16057 5.37371,1.35311 5.68875,1.66361 5.18313,5.10856 -0.43059,2.93374 -0.20726,3.39313 1.11573,2.29514 0.90973,-0.75501 1.65406,-2.36 1.65406,-3.56664 z m -6.53115,1.45022 c 1.08226,-0.68684 0.14046,-1.45758 -2.93413,-2.40119 -4.43162,-1.36011 -4.48137,-1.33818 -2.33762,1.03065 2.43597,2.69171 2.97084,2.83076 5.27175,1.37054 z m 0.28115,-11.45022 c 0,-0.6875 -1.26563,-1.21046 -2.8125,-1.16213 -2.68363,0.0839 -2.69795,0.13707 -0.3125,1.16213 1.375,0.59087 2.64062,1.11383 2.8125,1.16214 0.17187,0.0483 0.3125,-0.47464 0.3125,-1.16214 z m 3.75,-3.125 c -0.85586,-1.03125 -2.07191,-1.875 -2.70234,-1.875 -1.43525,0 1.67704,3.63745 3.16789,3.70245 0.59981,0.0261 0.39031,-0.7962 -0.46555,-1.82745 z m -172.22182,4.0625 0.34682,-17.8125 8.72385,-0.37613 c 14.81115,-0.6386 19.40115,2.0604 19.40115,11.40825 0,7.55517 -3.89256,11.06671 -13.11539,11.83153 l -6.88461,0.57093 0,6.09521 0,6.09521 -4.40932,0 -4.40932,0 0.34682,-17.8125 z m 6.219,8.75 0.37782,-6.5625 7.14484,-0.37361 c 5.95235,-0.31125 7.56922,-0.91311 9.6875,-3.60606 3.2111,-4.08226 3.22395,-7.21404 0.0426,-10.39532 -2.02381,-2.02382 -4.16666,-2.5 -11.25,-2.5 l -8.75,0 0,15 c 0,8.61525 0.50426,15 1.18468,15 0.65157,0 1.3547,-2.95313 1.5625,-6.5625 z m -0.24718,-15.3125 0,-6.875 6.78571,0 c 7.49146,0 10.71429,2.03657 10.71429,6.77055 0,4.58778 -3.78173,6.97945 -11.03593,6.97945 l -6.46407,0 0,-6.875 z m 13.52444,-0.3125 c 0.36424,-2.56461 -0.104,-2.8125 -5.3125,-2.8125 -5.29365,0 -5.71194,0.23412 -5.71194,3.19688 0,2.98799 0.34712,3.17175 5.3125,2.8125 4.41627,-0.31954 5.37989,-0.85885 5.71194,-3.19688 z m 63.97556,6.5625 0,-18.2834 4.0625,0.3917 4.0625,0.3917 0,17.5 0,17.5 -4.0625,0.3917 -4.0625,0.3917 0,-18.2834 z m 5,5 c 0,-6.25 -0.5147,-10.625 -1.25,-10.625 -0.7353,0 -1.25,4.375 -1.25,10.625 0,6.25 0.5147,10.625 1.25,10.625 0.7353,0 1.25,-4.375 1.25,-10.625 z m 0,-18.125 c 0,-0.6875 -0.5625,-1.25 -1.25,-1.25 -0.6875,0 -1.25,0.5625 -1.25,1.25 0,0.6875 0.5625,1.25 1.25,1.25 0.6875,0 1.25,-0.5625 1.25,-1.25 z m 30,13.125 0,-18.125 3.75,0 3.75,0 0,18.125 0,18.125 -3.75,0 -3.75,0 0,-18.125 z m 5,0.625 c 0,-9.16666 -0.48611,-15 -1.25,-15 -0.76389,0 -1.25,5.83334 -1.25,15 0,9.16667 0.48611,15 1.25,15 0.76389,0 1.25,-5.83333 1.25,-15 z m -37.5,-61.99058 c -7.21875,-0.92038 -20.02511,-2.25168 -28.45858,-2.95844 -17.26715,-1.44708 -18.5537,-1.87194 -35.91642,-11.86069 -10.341,-5.94916 -15.0908,-9.817 -27.5,-22.39362 -8.25,-8.36132 -17.20246,-18.5248 -19.89436,-22.58551 -9.36458,-14.12643 -15.17721,-43.67718 -11.45172,-58.21922 1.05513,-4.11857 3.06845,-9.74256 4.47404,-12.49775 3.8244,-7.49643 17.32309,-21.06056 27.98355,-28.11918 5.92591,-3.92374 9.45304,-7.09767 9.47635,-8.52742 0.0592,-3.6355 -5.78687,-12.5877 -10.89314,-16.6806 -2.5821,-2.06967 -12.00722,-7.58615 -20.94472,-12.25882 -8.9375,-4.67269 -24.99039,-13.06045 -35.67308,-18.63948 -10.68269,-5.57902 -21.15591,-11.46063 -23.27381,-13.07023 -5.04293,-3.83263 -7.36415,-11.2072 -5.40043,-17.15732 2.85824,-8.66056 10.84617,-9.27378 19.21982,-1.47547 3.70262,3.44822 8.62671,6.3625 14.01642,8.29546 15.14642,5.4321 22.79572,3.43043 25.32845,-6.62799 1.07122,-4.25417 2.34703,-6.15471 5.08044,-7.56822 4.58405,-2.3705 5.48889,-5.17664 3.89635,-12.08364 -2.7285,-11.83377 -0.13034,-19.85689 7.74363,-23.91228 3.84233,-1.97895 6.05085,-2.25619 12.24545,-1.53724 9.92506,1.15193 14.94176,5.08061 14.94176,11.70123 0,4.28565 2.75781,10.16701 4.76739,10.16701 0.4816,0 0.68295,-2.42253 0.44746,-5.38342 -0.56766,-7.13748 1.51655,-8.87282 9.44275,-7.86219 3.28207,0.41848 11.72542,1.10221 18.763,1.51939 l 12.79561,0.75852 6.2637,-4.0194 c 3.44503,-2.21067 7.62299,-5.63483 9.28435,-7.60925 5.09748,-6.05801 9.58677,-16.70552 10.96842,-26.01445 1.15586,-7.78776 1.04694,-9.282801 -0.89184,-12.241755 -1.31068,-2.000356 -2.44886,-6.730113 -2.79978,-11.634553 -0.58001,-8.106411 -0.49905,-8.375697 4.24633,-14.12486 2.66068,-3.223495 5.98427,-7.338453 7.38574,-9.144352 3.00726,-3.875071 13.86083,-6.262819 18.46844,-4.062993 3.99523,1.907457 8.32287,7.806824 11.63616,15.862259 3.78082,9.192114 3.71022,14.074553 -0.32269,22.317551 -2.7226,5.564793 -3.17628,7.866377 -2.61168,13.249593 1.43534,13.68521 9.29708,28.0328 18.39084,33.56305 5.98019,3.63677 20.28666,4.57141 28.28069,1.84758 3.33691,-1.13701 9.01984,-2.41431 12.6287,-2.83847 6.09661,-0.71653 6.64288,-0.55987 7.7088,2.21079 1.29568,3.36789 1.94751,2.28038 3.21451,-5.36305 0.64246,-3.87578 1.59992,-5.0008 6.11705,-7.1875 5.94381,-2.87735 11.52735,-3.24877 18.73823,-1.24648 3.96344,1.10056 5.21848,2.28452 7.22138,6.81241 2.03167,4.59292 2.29008,7.0888 1.5958,15.41365 -0.66862,8.01746 -0.38338,11.17086 1.4789,16.34971 2.87754,8.00216 4.09022,9.08831 15.1905,13.60561 8.07502,3.28615 9.63087,3.53325 15.51413,2.46393 7.14732,-1.29907 19.59562,-7.07508 22.31827,-10.35568 2.46443,-2.96945 10.61688,-6.88564 14.33404,-6.88564 1.74614,0 4.36177,1.18698 5.81254,2.63774 2.17692,2.17693 2.49513,3.54176 1.82147,7.8125 -1.41786,8.98883 -4.46737,12.78918 -18.5647,23.13573 -10.47047,7.68466 -17.49752,11.62413 -31.47086,17.64307 -10.48439,4.5161 -20.12369,9.5753 -23.10353,12.12594 -6.4905,5.55562 -10.37852,13.89842 -11.06268,23.73795 l -0.53664,7.71792 7.3271,6.65708 c 21.70565,19.7208 26.59987,30.69519 24.98851,56.03207 -1.54436,24.28329 -8.41655,40.51313 -26.1997,61.875 -9.99696,12.00879 -19.06812,18.51886 -33.96171,24.37317 -4.125,1.62145 -12.77064,5.08881 -19.21254,7.70526 -6.4419,2.61645 -16.20716,5.60979 -21.70059,6.65188 -12.23933,2.32176 -41.11323,2.27538 -59.71187,-0.0959 z m 34.38132,-0.49918 c -0.49179,-0.79575 2.72739,-1.04947 8.98874,-0.70846 6.23147,0.3394 7.7232,0.22282 4.12994,-0.32274 l -5.625,-0.85404 8.42786,-2.01468 c 7.08945,-1.69474 8.65221,-1.74436 9.84056,-0.3125 0.77698,0.9362 2.32819,1.69357 3.44713,1.68305 1.56202,-0.0147 1.6543,-0.26024 0.39736,-1.05738 -2.58962,-1.64231 3.11889,-4.69389 18.21793,-9.73866 13.95771,-4.66345 30.579,-12.33442 31.38441,-14.48436 0.80019,-2.13604 16.52661,-16.52763 19.13512,-17.51098 1.37454,-0.51816 2.29605,-0.43099 2.06563,0.19542 -0.65019,1.76756 -15.98823,15.11509 -17.36919,15.11509 -0.67852,0 -1.75992,1.38412 -2.40311,3.07582 -0.66102,1.73862 -3.7723,4.48621 -7.15656,6.32 -3.29293,1.7843 -4.86214,2.90412 -3.48714,2.48851 13.00467,-3.93089 31.77561,-23.01191 44.27785,-45.00933 l 2.84176,-5 -3.55981,3.95599 c -1.95789,2.17579 -5.10133,6.25391 -6.98542,9.0625 -1.88409,2.80859 -4.00052,5.10651 -4.70318,5.10651 -1.40198,0 3.31369,-8.00821 8.9519,-15.20224 5.81792,-7.42338 7.26636,-12.49438 8.12385,-28.44184 0.86406,-16.06964 -0.40711,-23.99344 -4.88563,-30.45429 -1.32421,-1.91036 -2.95778,-5.4658 -3.63017,-7.90097 -1.2923,-4.68034 -9.07003,-14.25066 -11.5814,-14.25066 -0.81638,0 -3.34989,-1.92476 -5.63001,-4.27725 -2.28013,-2.3525 -5.62484,-4.64058 -7.43272,-5.08466 -4.15135,-1.0197 -8.91202,-4.06045 -8.91202,-5.69231 0,-0.68563 2.22759,-0.11013 4.9502,1.27882 2.72261,1.38897 5.87261,2.5254 7,2.5254 1.12739,0 3.94355,1.89375 6.25814,4.20834 2.31457,2.31458 4.46346,3.9532 4.77527,3.64138 1.21327,-1.21327 9.84906,9.40302 13.44246,16.52528 2.0812,4.125 4.7004,9.1875 5.82045,11.25 1.43509,2.64262 2.23639,8.36412 2.71348,19.375 l 0.67701,15.625 1.00811,-10.20602 c 1.35054,-13.6727 -0.64893,-25.72341 -6.08418,-36.66898 -2.59489,-5.22563 -12.39289,-15.55497 -21.18594,-22.33486 -3.51219,-2.70807 -3.79963,-3.57788 -4.53252,-13.71578 -0.63651,-8.80428 -0.37133,-11.78568 1.42084,-15.97554 1.21187,-2.83315 2.86792,-5.56189 3.68013,-6.06386 0.8122,-0.50197 0.0321,1.93799 -1.73336,5.42213 -1.76555,3.48414 -3.20459,7.05663 -3.19788,7.93886 0.006,0.88223 1.44712,-1.4897 3.20088,-5.27095 1.75377,-3.78125 4.98265,-8.83841 7.17529,-11.23813 2.55581,-2.79719 2.83613,-3.35798 0.78106,-1.5625 -1.76306,1.54035 -3.73181,2.7748 -4.375,2.74322 -1.33151,-0.0654 13.34039,-13.68686 14.74605,-13.69032 0.50351,-0.001 4.44846,-2.16469 8.76656,-4.80765 4.3181,-2.64298 9.94516,-5.49652 12.50461,-6.3412 2.55944,-0.84469 4.9758,-2.05727 5.3697,-2.69461 0.3939,-0.63734 1.31437,-1.15881 2.04546,-1.15881 2.82911,0 -1.95412,3.78525 -8.66636,6.85822 -3.81763,1.74777 -6.56967,3.54925 -6.11563,4.00327 0.45403,0.45404 -3.60238,2.90683 -9.01423,5.45063 -5.41186,2.54381 -10.19734,5.20368 -10.63438,5.91083 -0.43703,0.70715 2.15814,-0.28573 5.76708,-2.2064 3.60894,-1.92067 12.85117,-6.12155 20.53831,-9.33527 7.68715,-3.21374 14.69127,-6.7911 15.56473,-7.94971 1.34273,-1.78112 1.31738,-1.86517 -0.16413,-0.54407 -2.14269,1.9107 -3.75221,2.01311 -3.75221,0.23873 0,-0.72808 0.52364,-1.00015 1.16362,-0.60461 0.64,0.39555 1.54065,0.10912 2.00144,-0.63644 0.4608,-0.74559 1.58354,-1.06945 2.49499,-0.71969 0.91144,0.34975 2.40141,-0.31502 3.31106,-1.47728 1.52028,-1.94249 1.45193,-1.96173 -0.84611,-0.23821 -2.31488,1.73616 -2.37381,1.71404 -0.79586,-0.29873 0.93727,-1.19555 2.14473,-1.90143 2.68326,-1.5686 1.04111,0.64345 14.52562,-8.87195 17.20197,-12.13863 1.14497,-1.39752 1.2457,-2.84385 0.36027,-5.17274 -0.78467,-2.06381 -0.79439,-3.50147 -0.0269,-3.97582 0.66123,-0.40866 1.20224,-1.58676 1.20224,-2.61801 0,-1.03125 -0.46875,-1.5853 -1.04166,-1.23123 -0.57293,0.35409 -1.04168,-0.12162 -1.04168,-1.05705 0,-0.98094 0.83771,-1.43682 1.97918,-1.0771 1.72711,0.54431 1.74037,0.45198 0.10412,-0.72502 -3.04186,-2.18817 -5.29739,-1.63335 -11.8893,2.92447 -15.27046,10.55843 -27.45975,14.83705 -39.52116,13.87254 -6.16153,-0.49271 -14.08721,-3.86755 -13.0446,-5.55453 0.34466,-0.55768 -0.90256,-1.66787 -2.77164,-2.46707 -3.15727,-1.35004 -3.22621,-1.31868 -0.97189,0.44221 1.33453,1.04243 1.82528,1.89531 1.09055,1.89531 -1.63473,0 -4.36227,-3.11301 -3.49096,-3.98433 0.34613,-0.34613 -0.56835,-3.33685 -2.03216,-6.64607 -2.24583,-5.07705 -2.57098,-7.69393 -2.08193,-16.75567 0.898,-16.63943 -1.68885,-21.88447 -11.45593,-23.22779 -6.78102,-0.93263 -14.12457,1.44219 -16.06595,5.19554 -0.6524,1.26133 -1.56873,5.8033 -2.03627,10.09328 -1.16546,10.69426 -2.93347,15.32504 -5.85101,15.32504 -1.80857,0 -2.37771,-0.89761 -2.37771,-3.75 0,-3.99463 -1.06849,-4.68151 -3.5,-2.25 -1.16666,1.16667 -1.5,1.07083 -1.5,-0.43126 0,-1.0622 1.06893,-2.89862 2.37539,-4.08096 3.11753,-2.82134 4.16182,-6.95602 1.96936,-7.79735 -0.94116,-0.36116 -4.97563,0.35453 -8.96548,1.59042 -3.98985,1.23589 -12.03552,2.59378 -17.87927,3.01754 l -10.625,0.77048 10,0.34016 c 5.83864,0.19861 8.78942,0.68069 7.09091,1.15846 -1.6,0.45007 -6.71846,0.53462 -11.37435,0.1879 -9.11795,-0.67898 -9.81746,-1.0923 -21.16547,-12.50539 -5.92579,-5.95977 -5.87452,-4.91995 0.13871,2.8125 3.91986,5.04061 3.01422,6.52535 -1.14369,1.875 -3.38241,-3.78301 -10.77576,-18.43749 -9.30192,-18.43749 0.64486,0 1.40841,0.42187 1.69677,0.9375 0.28836,0.51562 0.24755,0.0937 -0.0908,-0.9375 -5.43239,-16.56232 -5.50601,-22.20216 -0.41947,-32.137707 1.48185,-2.894487 2.69426,-6.291079 2.69426,-7.547984 0,-5.056963 -4.99621,-15.979111 -9.68836,-21.17956 -4.12163,-4.568136 -5.54305,-5.397596 -8.26939,-4.825545 -1.81074,0.379935 -4.68828,0.98019 -6.39451,1.3339 -1.87529,0.388751 -3.90819,2.242711 -5.13994,4.6875 -1.12073,2.224415 -3.80284,5.90487 -5.96024,8.17879 -3.39894,3.5825 -3.91107,5.000825 -3.83652,10.625 0.0487,3.680405 1.0639,8.354127 2.34455,10.794715 3.32951,6.34519 1.88566,19.365391 -3.33465,30.070891 -2.1791,4.46875 -3.99288,8.96874 -4.03062,9.99999 -0.0377,1.03125 -0.91162,1.90057 -1.94197,1.93182 -1.03034,0.0312 -1.71879,0.77619 -1.52988,1.65542 0.1889,0.87922 -0.1578,1.28879 -0.77044,0.91015 -0.61265,-0.37864 -2.17347,0.48316 -3.46847,1.9151 -4.85755,5.3712 -10.94642,7.33751 -22.72129,7.33751 -6.10022,0 -14.27036,-0.63845 -18.15587,-1.41876 -5.52991,-1.11057 -7.47596,-1.07732 -8.95847,0.15306 -1.93134,1.60287 -2.73353,6.93215 -0.8701,5.78049 0.56309,-0.34801 0.77394,1.0697 0.46855,3.15049 -0.80648,5.49487 -3.74478,5.96635 -7.93768,1.27369 -2.31864,-2.59501 -3.56853,-5.38419 -3.59445,-8.02119 -0.0436,-4.43967 -1.75477,-7.30118 -5.58525,-9.34023 -3.03339,-1.61474 -15.36459,-3.53526 -14.10489,-2.19676 1.0708,1.13778 -4.32715,5.63102 -6.71727,5.59142 -0.96083,-0.0159 -0.34239,-1.14985 1.44716,-2.65346 l 3.125,-2.62566 -3.125,1.89775 c -1.79221,1.08837 -2.95606,2.80667 -2.7289,4.02889 0.21786,1.17214 -0.14006,1.79978 -0.79539,1.39477 -0.65531,-0.40501 -1.52901,0.52292 -1.94154,2.06207 -0.87167,3.25229 -0.87046,9.74077 0.001,7.61263 0.42435,-1.03574 1.61948,-0.92135 4.28946,0.41062 4.31503,2.15262 3.79982,4.61105 -0.61461,2.93267 -2.84284,-1.08084 -2.92722,-0.94435 -2.30129,3.72226 0.94451,7.04192 -0.441,10.93896 -4.66589,13.12373 -2.79333,1.44448 -4.07106,3.31616 -5.12723,7.51061 -1.04599,4.154 -2.44911,6.23089 -5.47144,8.09879 -5.27821,3.26211 -10.51785,3.13011 -21.26962,-0.53584 -4.8125,-1.64089 -8.93015,-2.80558 -9.15034,-2.58822 -0.22019,0.21736 2.17043,2.16395 5.3125,4.32575 3.14225,2.1618 5.71303,4.45396 5.71303,5.09369 0,1.89847 -6.54384,-1.56166 -11.25,-5.94857 -2.40625,-2.24301 -5.06954,-3.81936 -5.91843,-3.503 -0.84889,0.31638 -2.20661,-0.66946 -3.01715,-2.19074 -1.24245,-2.33188 -1.1964,-2.54907 0.29343,-1.38398 0.97193,0.76007 3.05121,1.69661 4.62061,2.08119 2.24325,0.5497 1.70862,-0.34323 -2.5,-4.17543 -2.9444,-2.68105 -6.64175,-5.23113 -8.21633,-5.66684 -4.01995,-1.11237 -8.15223,2.77965 -7.15783,6.74166 0.45914,1.82935 0.26533,2.67492 -0.5041,2.19938 -0.79858,-0.49355 -0.77078,0.60214 0.077,3.034 1.3138,3.76879 9.20651,11.3473 11.67013,11.20556 0.70273,-0.0404 0.22962,-0.74355 -1.05135,-1.5625 -4.26139,-2.72437 -9.54595,-8.53055 -9.54595,-10.4882 0,-2.28188 1.00272,-1.58855 9.85126,6.81171 5.6015,5.31773 7.64874,6.40509 7.64874,4.0625 0,-0.6875 -0.54271,-1.25 -1.20602,-1.25 -0.66331,0 -1.82948,-1.16493 -2.59148,-2.58876 -1.35752,-2.53655 -1.31957,-2.54557 1.88178,-0.44797 1.79698,1.17742 3.82669,3.18612 4.51046,4.46376 0.68377,1.27764 2.5608,2.32297 4.17118,2.32297 1.61038,0 3.57705,0.7821 4.37038,1.738 0.79333,0.95591 4.09658,2.89518 7.34056,4.30949 5.71443,2.4914 14.44801,10.20251 11.55533,10.20251 -1.93019,0 -0.4615,2.18228 2.55527,3.79682 1.86097,0.99596 2.36899,0.92261 2.11788,-0.30579 -0.52827,-2.5843 3.23489,-1.9171 16.13386,2.8605 1.97011,0.7297 2.52795,1.7175 2.03481,3.60322 -0.56115,2.14585 -1.00436,2.32823 -2.5469,1.04803 -1.68042,-1.39463 -4.60471,-2.65912 -12.20211,-5.27635 -1.375,-0.47368 2.95391,1.86685 9.6198,5.20118 6.66589,3.33431 13.22592,7.06342 14.57786,8.28691 1.35194,1.22347 3.33905,2.35381 4.41582,2.51185 2.99168,0.43908 8.41827,6.06217 7.68768,7.96606 -0.35613,0.92807 -0.15041,1.38019 0.45718,1.00468 0.60759,-0.37552 1.43845,0.18698 1.84636,1.25 0.41996,1.09439 0.21189,1.60532 -0.4797,1.17789 -0.69159,-0.42742 -0.89966,0.0835 -0.4797,1.1779 0.40791,1.06302 1.11495,1.70204 1.57119,1.42007 0.45624,-0.28197 0.61585,1.72786 0.3547,4.4663 -0.44804,4.69815 -1.06215,5.36577 -10.88801,11.83697 -15.98494,10.52752 -29.7617,27.12158 -28.25802,34.0367 0.221,1.01634 -0.21686,1.32708 -1.10047,0.78096 -1.04247,-0.64427 -1.20892,-0.0922 -0.57469,1.9061 0.55684,1.75445 0.42472,2.52377 -0.35108,2.04429 -3.78417,-2.33874 -2.00608,22.56111 2.7105,37.95724 4.60978,15.04746 11.24703,24.20799 33.56449,46.32461 10.95626,10.85766 35.02022,25.68228 39.12914,24.10554 1.39977,-0.53715 1.93329,-0.3731 1.4308,0.43994 -1.02408,1.657 8.07816,2.94165 19.00311,2.68201 l 8.26304,-0.19639 -6.25,-0.85724 c -3.4375,-0.47148 -4.81562,-0.94561 -3.0625,-1.05362 1.75312,-0.108 3.72246,-0.73134 4.37631,-1.38519 0.75174,-0.75174 4.0538,-0.46711 8.98157,0.7742 7.84168,1.97533 9.31098,4.03955 3.06834,4.31074 -5.20983,0.22634 8.06463,2.18284 23.09809,3.40439 19.50074,1.58455 20.65174,1.59675 19.79451,0.20972 z m -36.25632,-5.01024 c -0.4249,-0.6875 -0.17685,-1.25 0.55122,-1.25 0.72808,0 1.32378,0.5625 1.32378,1.25 0,0.6875 -0.24805,1.25 -0.55123,1.25 -0.30317,0 -0.89887,-0.5625 -1.32377,-1.25 z m 5.62589,-0.3125 c -4.9e-4,-0.51562 1.40536,-0.9375 3.12411,-0.9375 1.71875,0 3.125,0.503 3.125,1.11777 0,0.61477 -1.40585,1.03665 -3.12411,0.9375 -1.71828,-0.0991 -3.12453,-0.60214 -3.125,-1.11777 z m 36.87411,0.3125 c -0.4249,-0.6875 -0.44009,-1.78793 -0.0337,-2.44541 1.02821,-1.66367 4.40874,-0.16527 4.40874,1.95415 0,1.99863 -3.21994,2.36019 -4.375,0.49126 z m 19.375,-2.5 c -1.60238,-1.03553 -1.55694,-1.2145 0.3125,-1.23086 1.20312,-0.01 2.1875,0.54336 2.1875,1.23086 0,1.52452 -0.14099,1.52452 -2.5,0 z m -61.66666,-0.83333 c -1.4383,-1.43829 -0.9103,-2.91667 1.04166,-2.91667 1.03125,0 1.875,0.84375 1.875,1.875 0,1.95197 -1.47838,2.47997 -2.91666,1.04167 z m -38.33334,-2.91667 c -1.66666,-1.07708 -1.66666,-1.21171 0,-1.21171 1.03125,0 2.71875,0.54526 3.75,1.21171 1.66666,1.07709 1.66666,1.21172 0,1.21172 -1.03125,0 -2.71875,-0.54527 -3.75,-1.21172 z m -14.44859,-1.94396 c -2.33002,-1.86673 -2.3147,-1.88981 0.38609,-0.58101 1.54687,0.74961 2.8125,1.62439 2.8125,1.94395 0,0.95653 -0.64826,0.6803 -3.19859,-1.36294 z m 6.01109,1.0823 c 1.20312,-0.3144 3.17187,-0.3144 4.375,0 1.20312,0.31442 0.21875,0.57167 -2.1875,0.57167 -2.40625,0 -3.39063,-0.25725 -2.1875,-0.57167 z m -15.00871,-6.23683 c -5.11708,-2.97957 -8.75841,-7.36354 -7.31504,-8.80692 0.38021,-0.38022 1.25562,0.79295 1.94534,2.60705 0.68972,1.8141 1.89063,3.29837 2.66871,3.29837 0.77806,0 1.09176,-0.8415 0.69709,-1.86999 -0.47855,-1.2471 2.18332,-0.40913 7.99126,2.51571 4.78987,2.41214 8.70885,4.58188 8.70885,4.82165 0,0.88629 -6.3108,-0.80447 -6.96724,-1.86662 -1.15518,-1.86914 -3.3432,-1.2127 -2.58072,0.77425 0.39572,1.03125 0.59652,1.81873 0.44623,1.74996 -0.15029,-0.0688 -2.66782,-1.51933 -5.59448,-3.22346 z m 57.82121,-5.40151 c -0.4249,-0.6875 -0.17685,-1.25 0.55122,-1.25 0.72808,0 1.32378,0.5625 1.32378,1.25 0,0.6875 -0.24805,1.25 -0.55123,1.25 -0.30317,0 -0.89887,-0.5625 -1.32377,-1.25 z m 3.125,0 c 0,-0.6875 0.5957,-1.25 1.32377,-1.25 0.72808,0 0.97613,0.5625 0.55123,1.25 -0.4249,0.6875 -1.0206,1.25 -1.32378,1.25 -0.30317,0 -0.55122,-0.5625 -0.55122,-1.25 z m -13.92106,-6.11782 c 1.43858,-0.91142 1.43858,-1.18507 0,-1.75717 -1.18802,-0.47245 -1.04159,-0.70752 0.48356,-0.77632 1.20312,-0.0543 2.1875,0.74506 2.1875,1.77631 0,1.03125 -0.98438,1.86639 -2.1875,1.85587 -1.71193,-0.015 -1.81705,-0.25385 -0.48356,-1.09869 z m -72.77263,-12.08312 c -11.04455,-11.86611 -11.2617,-14.16083 -0.34767,-3.67405 3.9353,3.78125 7.47712,6.875 7.87071,6.875 0.39359,0 2.63757,1.6875 4.98663,3.75 2.34906,2.0625 3.59261,3.75 2.76344,3.75 -0.82916,0 -2.56045,-0.95284 -3.84728,-2.11742 -2.19882,-1.98988 -2.29079,-1.98988 -1.5272,0 0.4469,1.16458 0.61172,2.08324 0.3663,2.04147 -0.24544,-0.0417 -4.86465,-4.82303 -10.26493,-10.625 z m 48.88898,9.87049 c 0.86366,-0.34818 1.25233,-1.14753 0.86372,-1.77631 -0.3886,-0.62877 0.99649,-1.14324 3.07799,-1.14324 2.85047,0 3.60696,0.46277 3.06504,1.875 -0.44141,1.15029 -2.23804,1.83687 -4.64828,1.77632 -2.16081,-0.0542 -3.22213,-0.38357 -2.35847,-0.73177 z m -8.42615,-3.85705 c 0.01,-0.51562 0.56441,-1.78125 1.23086,-2.8125 0.97984,-1.5162 1.21537,-1.3368 1.23086,0.9375 0.01,1.54688 -0.54336,2.8125 -1.23086,2.8125 -0.6875,0 -1.24139,-0.42187 -1.23086,-0.9375 z m -9.08164,-3.52746 c -4.63633,-2.51526 -4.41378,-4.85409 0.23324,-2.45102 3.65701,1.89111 6.13847,4.4611 4.21553,4.36593 -0.5562,-0.0275 -2.55814,-0.88923 -4.44877,-1.91491 z m 96.36744,1.33996 c -1.19238,-1.95752 1.15355,-6.875 3.27978,-6.875 1.0534,0 1.91528,0.84375 1.91528,1.875 0,1.03125 -0.5957,1.875 -1.32378,1.875 -0.72807,0 -0.9268,-0.70312 -0.44161,-1.5625 0.60014,-1.06298 0.4627,-1.16288 -0.4299,-0.3125 -0.72162,0.6875 -1.52047,2.375 -1.77521,3.75 -0.25474,1.375 -0.80579,1.9375 -1.22456,1.25 z m 25.19506,-1.137 c 0,-1.27851 -0.72289,-1.65516 -2.1875,-1.1398 -1.79144,0.63038 -1.90299,0.46324 -0.61608,-0.92315 1.31745,-1.4193 1.89242,-1.37192 3.55745,0.29312 1.35149,1.35148 1.54833,2.25655 0.61608,2.8327 -0.76491,0.47273 -1.36995,0.003 -1.36995,-1.06287 z m -119.4138,-3.30077 c -1.14808,-1.85763 -0.235,-2.51525 1.77095,-1.27551 1.07466,0.66418 1.20251,1.30837 0.36267,1.82742 -0.71338,0.4409 -1.67352,0.19254 -2.13362,-0.55191 z m 69.61116,-2.43723 c 0,-1.71875 0.28373,-2.42187 0.63049,-1.5625 0.34676,0.85938 0.34676,2.26563 0,3.125 -0.34676,0.85938 -0.63049,0.15625 -0.63049,-1.5625 z m -15.93581,-5.46988 c -1.05901,-2.75977 0.34989,-4.16868 2.25929,-2.25928 1.12737,1.12738 1.13217,1.82615 0.0201,2.93819 -1.11202,1.11202 -1.65412,0.95056 -2.27942,-0.67891 z m 103.86345,0.46988 c 0.4249,-0.6875 1.0206,-1.25 1.32377,-1.25 0.30318,0 0.55123,0.5625 0.55123,1.25 0,0.6875 -0.5957,1.25 -1.32377,1.25 -0.72808,0 -0.97613,-0.5625 -0.55123,-1.25 z m -66.07704,-3.125 c -0.39572,-1.03125 -0.17465,-1.875 0.49126,-1.875 0.66593,0 1.21078,0.84375 1.21078,1.875 0,1.03125 -0.22108,1.875 -0.49126,1.875 -0.2702,0 -0.81504,-0.84375 -1.21078,-1.875 z m -69.70421,-1.875 c -0.0859,-0.6875 -0.29688,-1.8125 -0.46875,-2.5 -0.17188,-0.6875 -0.38281,-1.8125 -0.46875,-2.5 -0.0859,-0.6875 -1.14063,-1.25861 -2.34375,-1.26913 -1.86944,-0.0164 -1.91488,-0.19533 -0.3125,-1.23087 2.44796,-1.582 4.10272,-1.582 3.125,0 -0.4249,0.6875 0.32005,1.25 1.65544,1.25 1.33539,0 2.7752,0.98438 3.19957,2.1875 0.42438,1.20313 1.09937,2.89063 1.49997,3.75 0.48233,1.03474 -0.36235,1.5625 -2.50082,1.5625 -1.77603,0 -3.29947,-0.5625 -3.38541,-1.25 z m 2.65625,-2.5 c 0,-1.375 -0.50984,-2.5 -1.13298,-2.5 -0.62313,0 -0.83878,1.125 -0.47921,2.5 0.35958,1.375 0.86941,2.5 1.13298,2.5 0.26356,0 0.47921,-1.125 0.47921,-2.5 z m 62.5,1.80123 c 0,-1.07182 0.57167,-1.59545 1.27039,-1.16363 0.69871,0.43183 0.94677,1.30878 0.55122,1.94878 -1.07153,1.7338 -1.82161,1.41051 -1.82161,-0.78515 z M 251.76402,355.0854 c -5.00378,-10.93617 -6.85157,-23.27045 -5.90951,-39.44701 0.57178,-9.81845 1.39009,-13.23296 5.24246,-21.875 5.192,-11.6472 9.29525,-16.55006 19.66107,-23.4925 5.37261,-3.59827 8.55795,-4.87299 12.17691,-4.87299 3.54726,0 5.33227,-0.69055 6.46229,-2.5 1.63508,-2.61817 6.50877,-3.39573 7.83491,-1.25 0.43815,0.70895 -0.61203,1.25 -2.42623,1.25 -1.75932,0 -3.19877,0.53993 -3.19877,1.19983 0,0.6599 -2.39063,1.90635 -5.3125,2.76989 -8.22721,2.43147 -21.58732,10.63243 -25.3432,15.55665 -3.09845,4.06227 -4.93011,8.0726 -10.18455,22.2986 -1.30964,3.54572 -1.75328,9.39677 -1.56383,20.625 0.26488,15.69945 0.94996,18.81566 8.04898,36.61253 0.47991,1.20313 0.3744,2.1875 -0.23447,2.1875 -0.60889,0 -2.97298,-4.07812 -5.25356,-9.0625 z m 96.09313,6.5625 c 0,-1.59091 0.83334,-2.5 2.29166,-2.5 2.94898,0 3.95636,1.05067 3.11348,3.24722 -1.06109,2.76515 -5.40514,2.16462 -5.40514,-0.74722 z m -59.98086,-0.9375 c 0.0113,-1.24834 0.41966,-1.65085 0.95205,-0.9375 0.51309,0.6875 1.44197,1.67188 2.06419,2.1875 0.62221,0.51563 0.19378,0.9375 -0.95204,0.9375 -1.15809,0 -2.07484,-0.97151 -2.0642,-2.1875 z m 48.81955,0.41937 c -1.97682,-2.38193 -1.38527,-3.55574 1.03737,-2.05847 0.92325,0.5706 1.4489,1.7267 1.1681,2.5691 -0.36314,1.08944 -0.99989,0.942 -2.20547,-0.51063 z m -55.96678,-0.85995 c -1.77794,-1.77794 1.74024,-6.19229 4.1869,-5.25341 2.07779,0.79732 2.21186,3.66216 0.22876,4.88778 -0.99733,0.61639 -1.19583,0.20912 -0.62415,-1.28068 0.55947,-1.45793 0.3183,-2.00269 -0.72507,-1.63788 -0.85984,0.30065 -1.39806,1.47265 -1.19605,2.60445 0.43076,2.41345 0.0146,2.5647 -1.87039,0.67974 z m 27.75309,0.12808 c -0.4249,-0.6875 -0.17685,-1.25 0.55122,-1.25 0.72808,0 1.32378,0.5625 1.32378,1.25 0,0.6875 -0.24805,1.25 -0.55123,1.25 -0.30317,0 -0.89887,-0.5625 -1.32377,-1.25 z m 31.875,-2.5 c 0,-0.6875 0.5957,-1.25 1.32377,-1.25 0.72808,0 0.97613,0.5625 0.55123,1.25 -0.4249,0.6875 -1.0206,1.25 -1.32378,1.25 -0.30317,0 -0.55122,-0.5625 -0.55122,-1.25 z m 126.80247,0.11738 c 0.38502,-0.62296 1.82446,-0.8386 3.19878,-0.47921 3.43944,0.89944 3.13004,1.61186 -0.70003,1.61186 -1.75932,0 -2.88376,-0.50969 -2.49875,-1.13265 z m -11.70378,-2.09651 c 0.06,-1.45619 0.35617,-1.75238 0.7552,-0.75522 0.36108,0.90234 0.31668,1.98048 -0.0986,2.39584 -0.41536,0.41537 -0.7108,-0.32292 -0.65652,-1.64062 z m -58.05073,-2.39587 c -0.43827,-1.14213 -0.002,-1.875 1.11626,-1.875 1.00968,0 1.83578,0.84375 1.83578,1.875 0,1.03125 -0.50233,1.875 -1.11626,1.875 -0.61395,0 -1.44004,-0.84375 -1.83578,-1.875 z m -80.79796,-0.625 c 0,-0.6875 0.5957,-1.25 1.32377,-1.25 0.72808,0 0.97613,0.5625 0.55123,1.25 -0.4249,0.6875 -1.0206,1.25 -1.32378,1.25 -0.30317,0 -0.55122,-0.5625 -0.55122,-1.25 z m 71.01562,-0.85388 c 0.90234,-0.36109 1.98047,-0.31669 2.39584,0.0986 0.41536,0.41536 -0.32292,0.7108 -1.64062,0.65653 -1.45619,-0.06 -1.75238,-0.35618 -0.75522,-0.7552 z m -98.51562,-2.27112 c 0,-1.13713 1.10679,-1.84042 2.8125,-1.78713 2.66904,0.0834 2.68497,0.13918 0.3125,1.09423 -2.33346,0.93935 -2.29184,1.04707 0.625,1.61692 3.08441,0.6026 3.08036,0.61273 -0.3125,0.78076 -2.29787,0.11375 -3.4375,-0.45139 -3.4375,-1.70478 z m 68.84869,-0.10412 c 0.06,-1.45619 0.35617,-1.75238 0.7552,-0.75521 0.36109,0.90233 0.31669,1.98047 -0.0986,2.39583 -0.41537,0.41537 -0.7108,-0.32292 -0.65652,-1.64062 z m -73.75,-4.58334 c -0.0596,-1.32131 -1.08866,-2.18754 -2.59869,-2.18754 -1.66666,0 -2.5,-0.83333 -2.5,-2.5 0,-1.40692 0.83334,-2.5 1.90594,-2.5 2.04024,0 4.80025,5.72333 3.8588,8.00185 -0.31205,0.75523 -0.61178,0.38878 -0.66605,-0.81435 z m 25.04631,-1.875 c -0.0892,-1.73111 0.57592,-2.8125 1.73,-2.8125 1.13714,0 1.84042,1.10679 1.78714,2.8125 -0.0833,2.66609 -0.13958,2.68236 -1.0815,0.3125 -0.99367,-2.5 -0.99367,-2.5 -1.64215,0 -0.59128,2.27948 -0.66128,2.2519 -0.79349,-0.3125 z m 22.355,0.97669 c 0,-0.66591 0.93603,-0.85158 2.08005,-0.41257 1.51032,0.57956 1.7998,0.34472 1.05687,-0.85737 -0.6808,-1.10155 -0.54026,-1.35708 0.41994,-0.76365 2.2806,1.40949 1.68289,3.24436 -1.05686,3.24436 -1.375,0 -2.5,-0.54485 -2.5,-1.21077 z m 52.59869,-0.76839 c 0.06,-1.45619 0.35617,-1.75237 0.7552,-0.75521 0.36108,0.90234 0.31668,1.98047 -0.0986,2.39584 -0.41537,0.41536 -0.7108,-0.32293 -0.65652,-1.64063 z m 87.5,-0.83334 c 0.066,-1.8793 0.3355,-2.19036 0.81242,-0.9375 0.39256,1.03125 1.33253,2.28827 2.08881,2.79337 0.84818,0.56646 0.53687,0.92568 -0.81242,0.9375 -1.46965,0.0129 -2.15511,-0.90382 -2.08881,-2.79337 z m 2.40131,-4.3285 c 0,-0.88495 1.125,-1.609 2.5,-1.609 1.375,0 2.5,0.80879 2.5,1.79732 0,1.02675 -1.07183,1.71657 -2.5,1.609 -1.375,-0.10363 -2.5,-0.91238 -2.5,-1.79732 z m 7.5,0.266 c 0,-1.04166 1.11111,-1.875 2.5,-1.875 1.38889,0 2.5,0.83334 2.5,1.875 0,1.04167 -1.11111,1.875 -2.5,1.875 -1.38889,0 -2.5,-0.83333 -2.5,-1.875 z m -160,-1.72746 c 0,-2.87426 1.95119,-4.54681 3.1124,-2.66792 0.43182,0.69871 0.15625,1.27038 -0.6124,1.27038 -0.76865,0 -1.07392,0.52364 -0.67839,1.16363 0.39555,0.64 0.14749,1.51695 -0.55122,1.94877 -0.69878,0.43187 -1.27039,-0.33975 -1.27039,-1.71486 z m 71.25,-7.02254 c 0,-1.03125 0.22107,-1.875 0.49126,-1.875 0.2702,0 0.81504,0.84375 1.21078,1.875 0.39572,1.03125 0.17465,1.875 -0.49127,1.875 -0.66592,0 -1.21077,-0.84375 -1.21077,-1.875 z m 83.0736,-3.20816 c -0.45316,-0.73324 -0.48636,-1.67074 -0.0737,-2.08334 0.4126,-0.41258 0.75879,0.0467 0.76931,1.02067 0.0158,1.45808 0.23315,1.43968 1.23086,-0.10413 1.03554,-1.60237 1.21451,-1.55694 1.23087,0.3125 0.0213,2.42138 -1.87215,2.9337 -3.15726,0.85434 z M 346.75215,314.4604 c -0.0892,-1.73111 0.57592,-2.8125 1.73,-2.8125 1.03125,0 1.86639,0.98438 1.85586,2.1875 -0.0152,1.75028 -0.23986,1.83893 -1.12341,0.44357 -0.88725,-1.40123 -1.22346,-1.2784 -1.71085,0.625 -0.51402,2.00741 -0.62873,1.93971 -0.7516,-0.44357 z m -60.52769,-11.11185 c -1.16655,-1.16655 0.24315,-2.95065 2.33146,-2.95065 0.99068,0 1.80123,0.84375 1.80123,1.875 0,1.88279 -2.63874,2.5696 -4.13269,1.07565 z m 191.39831,-3.80453 c 0.90234,-0.36109 1.98048,-0.31669 2.39584,0.0986 0.41536,0.41536 -0.32292,0.7108 -1.64062,0.65653 -1.45619,-0.06 -1.75238,-0.35618 -0.75522,-0.7552 z m -203.75,-1.25 c 0.90234,-0.36109 1.98047,-0.31669 2.39584,0.0986 0.41537,0.41536 -0.32292,0.7108 -1.64062,0.65653 -1.45619,-0.06 -1.75238,-0.35618 -0.75522,-0.7552 z m 15.23438,-5.39612 c -1.60238,-1.03553 -1.55694,-1.2145 0.3125,-1.23086 1.20312,-0.01 2.1875,0.54336 2.1875,1.23086 0,1.52452 -0.14099,1.52452 -2.5,0 z m 193.98565,-5.79165 c -2.65179,-4.04536 -2.67961,-4.26632 -0.38241,-3.0369 1.3626,0.72925 2.84815,2.49389 3.30124,3.92143 1.32181,4.16464 0.16025,3.81264 -2.91883,-0.88453 z M 291.60715,285.3979 c 0,-1.56615 1.32655,-1.56615 3.75,0 1.5162,0.97984 1.3368,1.21538 -0.9375,1.23087 -1.54688,0.0105 -2.8125,-0.54337 -2.8125,-1.23087 z m -9.70586,-5.51835 c 2.56803,-2.46491 5.32709,-4.48165 6.13124,-4.48165 2.17753,0 -1.79303,3.9796 -6.65402,6.66915 l -4.14636,2.29415 4.66914,-4.48165 z m 11.58086,3.01835 c -0.4249,-0.6875 -0.21004,-1.25 0.47746,-1.25 0.6875,0 1.59764,0.5625 2.02254,1.25 0.4249,0.6875 0.21004,1.25 -0.47746,1.25 -0.6875,0 -1.59764,-0.5625 -2.02254,-1.25 z m 178.88244,-2.30992 -2.36757,-3.31508 2.92313,2.77778 c 1.60771,1.52777 2.67311,3.01956 2.36755,3.31507 -0.30555,0.29552 -1.62095,-0.95448 -2.92311,-2.77777 z m -175.75744,-0.26385 c 0,-0.72808 0.5625,-0.97613 1.25,-0.55123 0.6875,0.4249 1.25,1.0206 1.25,1.32378 0,0.30317 -0.5625,0.55122 -1.25,0.55122 -0.6875,0 -1.25,-0.5957 -1.25,-1.32377 z m 2.5,-2.5 c 0,-0.72808 0.5625,-0.97613 1.25,-0.55123 0.6875,0.4249 1.25,1.0206 1.25,1.32378 0,0.30317 -0.5625,0.55122 -1.25,0.55122 -0.6875,0 -1.25,-0.5957 -1.25,-1.32377 z m 96.5625,-0.82674 c -1.72724,-0.61664 -2.1382,-4.84615 -0.56531,-5.81824 0.54845,-0.33896 1.7784,-0.13347 2.73322,0.45664 2.16139,1.33581 0.19283,6.20439 -2.16791,5.3616 z m -73.30164,-1.37966 c -0.4409,-0.71339 -0.19254,-1.67353 0.55191,-2.13363 1.85763,-1.14807 2.51526,-0.235 1.27552,1.77095 -0.66419,1.07467 -1.30838,1.20252 -1.82743,0.36268 z m 22.98914,-1.33609 c 0,-1.30145 0.87296,-2.70125 1.93992,-3.11069 1.06695,-0.40942 1.62028,-0.22722 1.22962,0.4049 -0.39068,0.63212 -0.12947,1.50829 0.58046,1.94705 1.67542,1.03548 0.37239,3.125 -1.94878,3.125 -0.99067,0 -1.80122,-1.06482 -1.80122,-2.36626 z m -37.8125,-0.96159 c 0.85937,-0.34676 2.26562,-0.34676 3.125,0 0.85937,0.34677 0.15625,0.63049 -1.5625,0.63049 -1.71875,0 -2.42188,-0.28372 -1.5625,-0.63049 z m 70.85851,-1.54435 c 0.37173,-0.60146 -0.44512,-1.38672 -1.81522,-1.74501 -3.04049,-0.7951 -2.15411,-4.03122 1.1728,-4.28184 2.88891,-0.21761 4.39433,5.42133 1.72117,6.44712 -0.96504,0.37031 -1.45046,0.1812 -1.07875,-0.42026 z m 71.32899,-0.1278 c -0.4249,-0.6875 -0.17685,-1.25 0.55123,-1.25 0.72807,0 1.32377,0.5625 1.32377,1.25 0,0.6875 -0.24805,1.25 -0.55123,1.25 -0.30317,0 -0.89887,-0.5625 -1.32377,-1.25 z m -90.21631,-1.98795 c -0.91694,-2.38951 1.8149,-5.53966 4.0577,-4.67901 0.98098,0.37644 1.78361,1.68365 1.78361,2.90491 0,2.79204 -4.88174,4.27472 -5.84131,1.7741 z m 57.90945,-2.07455 c 0.31867,-0.51562 1.95246,-0.9375 3.63063,-0.9375 1.67818,0 3.05123,0.42188 3.05123,0.9375 0,0.51563 -1.63379,0.9375 -3.63064,0.9375 -1.99685,0 -3.3699,-0.42187 -3.05122,-0.9375 z m -114.15148,-2.8125 c 0,-1.06944 0.51094,-1.77413 1.13543,-1.56597 0.62447,0.20816 1.13541,0.91285 1.13541,1.56597 0,0.65313 -0.51094,1.35782 -1.13541,1.56598 -0.62449,0.20816 -1.13543,-0.49653 -1.13543,-1.56598 z m 56.45834,-1.78588 c -2.0625,-0.49775 -4.875,-1.48882 -6.25,-2.20238 -1.375,-0.71356 -10.13704,-1.66439 -19.47119,-2.11293 -13.56605,-0.65192 -18.04934,-0.43516 -22.34466,1.08032 -2.9554,1.04274 -6.56838,1.85227 -8.02881,1.799 -1.56823,-0.0573 -0.0965,-1.04108 3.59466,-2.40313 8.14974,-3.00723 39.64622,-3.47645 48.21482,-0.71826 3.04436,0.97996 8.21794,2.14106 11.49687,2.58023 3.27894,0.43916 5.63636,1.32487 5.23873,1.96826 -0.82621,1.33682 -6.92978,1.34117 -12.45042,0.009 z m 18.125,0.0868 c 0,-0.68342 -0.98438,-1.49983 -2.1875,-1.81423 -1.29346,-0.33802 -0.65486,-0.66881 1.5625,-0.80936 2.0625,-0.13074 6,-1.27928 8.75,-2.5523 5.77316,-2.6725 5.56936,-3.05344 -0.63325,-1.18361 -6.03102,1.81808 -15.39241,1.62145 -25.00808,-0.5253 -4.45977,-0.99567 -11.48367,-2.19544 -15.60867,-2.66617 -19.89694,-2.27052 -30.46946,-14.43172 -23.74894,-27.31752 1.02338,-1.96217 1.57323,-4.03269 1.22191,-4.60112 -0.35131,-0.56844 -0.0927,-1.37098 0.57458,-1.78342 0.66734,-0.41243 2.69841,-3.47843 4.51349,-6.81335 1.81509,-3.33491 4.69681,-6.81093 6.40385,-7.72451 1.70702,-0.91357 3.64242,-2.66769 4.30087,-3.89802 0.65847,-1.23034 1.9453,-2.23698 2.85965,-2.23698 0.91434,0 3.17444,-1.18934 5.02243,-2.64296 2.51197,-1.97593 4.36855,-2.44959 7.35607,-1.87675 2.41615,0.46327 3.33689,0.34147 2.32878,-0.30808 -1.33115,-0.85771 -1.2454,-1.2362 0.42531,-1.87731 1.15093,-0.44166 2.69125,-0.43302 3.42294,0.0191 0.73231,0.4526 0.96875,0.23713 0.52596,-0.47931 -0.4424,-0.71583 0.0333,-1.99661 1.05686,-2.84619 1.09884,-0.91188 1.86124,-1.02 1.86124,-0.26389 0,0.80676 2.15518,0.6321 5.82366,-0.47195 7.79886,-2.34711 8.52033,-2.2632 12.56293,1.46105 1.91862,1.76753 6.41261,5.00191 9.98663,7.1875 24.76543,15.14456 35.37678,25.88723 35.37678,35.81463 0,2.76237 -1.44786,5.41075 -5.1592,9.43708 -2.83756,3.07839 -6.07194,5.64149 -7.1875,5.69576 -1.39395,0.0677 -1.51891,0.30278 -0.39955,0.75125 2.22477,0.89136 -1.983,4.07218 -5.37875,4.06602 -2.21845,-0.004 -2.14806,-0.21185 0.625,-1.84542 l 3.125,-1.84086 -3.75,0.82948 c -2.0625,0.4562 -5.67226,1.48566 -8.0217,2.28768 -4.05013,1.38258 -3.85561,1.44763 3.75,1.25419 4.41194,-0.11225 10.8342,-0.57342 14.2717,-1.02494 l 6.25,-0.82092 -4.00893,1.85413 c -2.2049,1.01979 -9.0161,2.42137 -15.136,3.11464 -6.11988,0.69328 -13.59712,2.32883 -16.61607,3.63455 -7.94231,3.43515 -11.114,4.23918 -11.114,2.8174 z m 11.3142,-10.87465 c 5.80844,-1.75933 13.65455,-4.05804 17.4358,-5.10825 12.65094,-3.51373 19.43945,-11.49298 16.27581,-19.13069 -3.66215,-8.84119 -35.19957,-32.39245 -48.85544,-36.48384 -4.2541,-1.27456 -5.24281,-1.0205 -13.07597,3.36006 -10.02799,5.60797 -34.79028,26.63062 -37.4687,31.81012 -2.97119,5.74566 -2.35159,10.62236 1.9758,15.55098 4.40311,5.01487 9.42852,6.7353 30.5235,10.44967 18.60127,3.27526 21.00366,3.24282 33.1892,-0.44805 z m 5.84726,2.44355 c -0.41537,-0.41537 -1.4935,-0.45977 -2.39584,-0.0986 -0.99716,0.39903 -0.70097,0.69523 0.75522,0.7552 1.3177,0.0542 2.05598,-0.24116 1.64062,-0.65652 z m -45.28646,-56.5324 c 4.02451,-3.08539 2.76575,-2.5163 -4.6875,2.11921 -2.57813,1.60345 -4.6875,3.40786 -4.6875,4.0098 0,0.60193 -1.54688,1.9151 -3.4375,2.91815 -1.89063,1.00304 -5.96748,4.81436 -9.05967,8.4696 -4.9771,5.88334 -4.25999,5.42462 6.25,-3.99797 6.52969,-5.85413 13.55967,-11.93758 15.62217,-13.51879 z m 28.75,-8.96237 c -3.43636,-1.47665 -5.40996,-1.47665 -3.125,0 1.03125,0.66645 2.71875,1.1808 3.75,1.143 1.23632,-0.0452 1.02342,-0.43465 -0.625,-1.143 z m 62.70834,71.66667 c -2.12694,-2.12693 -0.68522,-4.31563 2.59347,-3.93719 4.50159,0.51957 5.61383,4.77052 1.24818,4.77052 -1.65458,0 -3.38333,-0.375 -3.84165,-0.83333 z m 30.99026,-2.99983 c -1.34534,-2.1768 0.1869,-2.6378 1.90132,-0.57205 0.98594,1.18799 1.08078,1.90521 0.2519,1.90521 -0.7311,0 -1.70005,-0.59992 -2.15322,-1.33316 z m -142.4486,-5.51451 c -3.4375,-1.61934 -5.40625,-2.96565 -4.375,-2.9918 1.03125,-0.0261 4.40625,1.30786 7.5,2.96447 7.2072,3.85927 5.04942,3.87813 -3.125,0.0274 z m 101.58556,0.38711 c 0.72638,-0.72637 2.05853,-1.07474 2.96033,-0.77414 0.93618,0.31207 0.36956,0.87868 -1.32069,1.32069 -2.07919,0.54371 -2.56723,0.38104 -1.63964,-0.54655 z m 17.78944,-0.8919 c 0,-0.6875 0.5625,-1.59763 1.25,-2.02254 0.6875,-0.4249 1.25,-0.21003 1.25,0.47747 0,0.6875 -0.5625,1.59763 -1.25,2.02253 -0.6875,0.42491 -1.25,0.21004 -1.25,-0.47746 z m -30.33334,-4.05265 c 0.84793,-0.85427 1.85655,-1.23833 2.24141,-0.85347 0.38487,0.38486 -0.30888,1.08381 -1.54166,1.55322 -1.7815,0.67835 -1.92507,0.53478 -0.69975,-0.69975 z M 257.23215,224.1479 c -2.4,-4.6411 -0.53784,-4.95069 4.46376,-0.74212 2.51939,2.11991 3.07889,3.19812 1.89527,3.65232 -0.92367,0.35444 -2.39296,-0.0147 -3.26509,-0.82037 -1.22115,-1.12806 -1.38289,-1.10561 -0.70355,0.0976 0.48519,0.85937 0.58215,1.5625 0.21549,1.5625 -0.36668,0 -1.53932,-1.6875 -2.60588,-3.75 z m 56.875,2.02806 c 0,-0.25957 0.98437,-1.24394 2.1875,-2.1875 1.98257,-1.55484 2.02679,-1.51063 0.47195,0.47194 -1.63296,2.08219 -2.65945,2.74435 -2.65945,1.71556 z m 133.125,-0.77806 c 0.4249,-0.6875 1.33504,-1.25 2.02254,-1.25 0.6875,0 0.90236,0.5625 0.47746,1.25 -0.4249,0.6875 -1.33504,1.25 -2.02254,1.25 -0.6875,0 -0.90236,-0.5625 -0.47746,-1.25 z m -166.04166,-3.33333 c -0.45834,-0.45833 -0.83334,-1.41458 -0.83334,-2.125 0,-0.78325 0.58221,-0.70945 1.47916,0.1875 0.81355,0.81355 1.18855,1.7698 0.83334,2.125 -0.35521,0.35521 -1.02084,0.27083 -1.47916,-0.1875 z m 21.66666,-1.62744 c 0,-0.66591 0.84375,-0.88699 1.875,-0.49126 1.03125,0.39574 1.875,0.94057 1.875,1.21077 0,0.27019 -0.84375,0.49126 -1.875,0.49126 -1.03125,0 -1.875,-0.54485 -1.875,-1.21077 z m 10,-1.91423 c 0.85586,-1.03125 2.39986,-1.875 3.43111,-1.875 1.52494,0 1.58448,0.35007 0.31889,1.875 -0.85586,1.03125 -2.39986,1.875 -3.43111,1.875 -1.52494,0 -1.58448,-0.35006 -0.31889,-1.875 z m 122.5,-0.69877 c 0,-0.72808 0.5625,-0.97613 1.25,-0.55123 0.6875,0.42491 1.25,1.0206 1.25,1.32378 0,0.30317 -0.5625,0.55122 -1.25,0.55122 -0.6875,0 -1.25,-0.5957 -1.25,-1.32377 z M 293.88887,215.0854 c -0.85592,-1.54687 -1.40355,-3.55922 -1.21693,-4.47187 0.18661,-0.91266 -0.81605,-1.96151 -2.22815,-2.33079 -1.68758,-0.4413 -3.01562,-2.3358 -3.87522,-5.52811 -0.93763,-3.48209 -1.98086,-4.85673 -3.68583,-4.85673 -2.80785,0 -3.19433,-0.53681 -4.38727,-6.09388 -1.04818,-4.88281 1.23955,-4.45517 3.15784,0.59031 0.69315,1.82312 2.14894,3.00357 3.70415,3.00357 1.85262,0 2.77202,1.04911 3.31983,3.78819 0.4167,2.0835 2.15395,4.88654 3.86056,6.22895 1.87117,1.47188 2.8141,3.19343 2.37535,4.33681 -0.40017,1.04283 -0.18274,1.89605 0.48318,1.89605 0.66592,0 1.21077,0.84375 1.21077,1.875 0,1.03125 0.81055,1.875 1.80122,1.875 0.99068,0 2.14888,0.5625 2.57378,1.25 0.43709,0.70722 -0.59736,1.25 -2.38225,1.25 -1.9772,0 -3.73569,-1.04982 -4.71103,-2.8125 z m 138.45199,-2.57843 c -1.75432,-1.28279 -1.9639,-1.97377 -0.81416,-2.68434 1.80631,-1.11636 4.32582,0.96414 3.64415,3.00916 -0.32514,0.97544 -1.18708,0.8765 -2.82999,-0.32482 z M 237.85715,210.3979 c -1.12662,-0.72807 -1.28079,-1.21936 -0.38627,-1.23086 0.81879,-0.01 1.83637,0.54336 2.26127,1.23086 0.95913,1.55192 0.5264,1.55192 -1.875,0 z m 206.82614,-1.32906 c -0.80199,-1.29765 1.30158,-3.60222 3.33331,-3.6518 1.73358,-0.0422 3.70894,3.51015 2.40125,4.31835 -0.72089,0.44553 -1.3107,0.14549 -1.3107,-0.66677 0,-1.12959 -0.41469,-1.13267 -1.76371,-0.0131 -1.33638,1.1091 -1.98092,1.11233 -2.66015,0.0132 z m -116.82614,-4.14288 c 0,-0.25957 0.98437,-1.24394 2.1875,-2.1875 1.98257,-1.55484 2.02679,-1.51063 0.47195,0.47194 -1.63296,2.08219 -2.65945,2.74435 -2.65945,1.71556 z m 73.0816,-3.28393 c -1.39886,-0.53046 -3.29586,-1.87114 -4.21555,-2.9793 -2.44792,-2.94956 0.8468,-2.66008 4.86528,0.42748 3.50551,2.69342 3.17252,4.00125 -0.64973,2.55182 z m 31.2934,-1.24413 c 1.24436,-1.375 2.47633,-2.5 2.73771,-2.5 0.26139,0 -0.12684,1.125 -0.86271,2.5 -0.73588,1.375 -1.96785,2.5 -2.73771,2.5 -0.76986,0 -0.38165,-1.125 0.86271,-2.5 z m -184.84491,0.25094 c -1.24253,-2.01044 0.12585,-4.00538 2.73118,-3.9818 1.31768,0.0125 1.59587,0.36502 0.73865,0.9375 -0.75628,0.5051 -1.63767,1.73441 -1.95863,2.7318 -0.4314,1.34055 -0.82547,1.42204 -1.5112,0.3125 z m 195.00631,-8.06344 c 1.15532,-2.23437 3.68369,-5.75 5.61858,-7.8125 1.93488,-2.0625 4.36117,-4.875 5.39175,-6.25 1.03057,-1.375 1.89165,-1.83007 1.91352,-1.01127 0.0219,0.8188 -0.53192,1.84205 -1.23064,2.27387 -1.41341,0.87354 -0.47222,3.1124 1.30843,3.1124 1.58583,0 3.56096,-7.94925 2.20071,-8.85721 -0.60333,-0.40271 0.088,-2.09021 1.53632,-3.75 l 2.63329,-3.01779 -0.78586,4.82095 c -1.24954,7.6655 -2.84996,10.76232 -6.22509,12.04553 -1.73107,0.65816 -3.14741,1.81084 -3.14741,2.56152 0,1.59139 -8.57397,9.947 -10.20695,9.947 -0.60899,0 -0.16198,-1.82812 0.99335,-4.0625 z m 95.48274,1.94878 c 0.0105,-0.5562 0.56441,-1.85503 1.23086,-2.88628 1.04425,-1.61586 1.21436,-1.58286 1.23086,0.23873 0.01,1.16255 -0.54336,2.46137 -1.23086,2.88627 -0.6875,0.42491 -1.24139,0.31748 -1.23086,-0.23872 z M 216.51151,193.8354 c -1.31298,-4.29016 0.60999,-8.05904 2.1132,-4.14172 0.41245,1.07482 1.50028,1.95422 2.41741,1.95422 0.91712,0 2.01513,0.5625 2.44003,1.25 0.45072,0.72928 -0.82035,1.25 -3.05123,1.25 -2.10307,0 -3.86681,-0.14062 -3.91941,-0.3125 z m 136.92179,-4.05213 c 2.03564,-1.6636 3.99597,-2.7299 4.35632,-2.36955 0.79345,0.79343 -5.04629,5.43561 -6.80747,5.41144 -0.6875,-0.01 0.41551,-1.37829 2.45115,-3.04189 z m 37.68202,-1.37695 c -2.4795,-2.55305 -4.50817,-5.3122 -4.50817,-6.13143 0,-0.81924 -1.125,-2.50762 -2.5,-3.75199 -1.375,-1.24436 -2.5,-3.05223 -2.5,-4.01749 0,-2.76112 2.30949,-0.63133 4.96959,4.58287 1.33861,2.62391 4.21158,6.54849 6.38437,8.72129 2.17279,2.17278 3.66069,4.24035 3.30645,4.59459 -0.35424,0.35423 -2.67275,-1.44479 -5.15224,-3.99784 z m 154.18903,-0.40975 c 1.43155,-2.67489 14.8292,-10.38153 16.86698,-9.70228 0.71568,0.23856 -1.22785,1.98394 -4.31897,3.8786 -3.09111,1.89466 -7.14431,4.52039 -9.0071,5.83493 -4.28035,3.0206 -5.16201,3.0178 -3.54091,-0.0113 z m -257.60741,-5.46916 c -3.69027,-4.62832 -5.57288,-10.03447 -6.75783,-19.40594 -0.49276,-3.89715 -1.5638,-6.92879 -2.58649,-7.32124 -0.96001,-0.36839 -1.74547,-1.19191 -1.74547,-1.83004 0,-0.65442 1.08991,-0.57695 2.5,0.17771 1.375,0.73588 2.5,2.40998 2.5,3.72022 0,1.31023 0.59544,2.75023 1.32319,3.20001 0.72775,0.44978 1.00427,2.3111 0.6145,4.13627 -0.50076,2.34489 0.59114,5.84194 3.72168,11.91947 2.43671,4.73052 4.24878,8.78256 4.02683,9.0045 -0.22195,0.22195 -1.84034,-1.39848 -3.59641,-3.60096 z m -9.69479,2.03523 c -0.0797,-0.80315 -0.50904,-2.49065 -0.95398,-3.75 -0.62767,-1.77659 -0.46133,-1.96932 0.74223,-0.86001 0.85316,0.78635 1.28245,2.47385 0.95397,3.75 -0.32847,1.27615 -0.66247,1.66315 -0.74222,0.86001 z m 91.105,-2.86945 c -2.62879,-0.66067 -2.77788,-0.9188 -0.93889,-1.62557 1.20235,-0.4621 3.40199,-0.3904 4.88808,0.15935 3.61077,1.33571 0.34941,2.54657 -3.94919,1.46622 z m -37.5,-2.54529 c 0,-0.6875 0.5165,-1.25 1.14776,-1.25 0.63128,0 2.17815,-0.32717 3.4375,-0.72704 2.09528,-0.66529 2.08368,-0.55914 -0.13667,1.25 -2.77865,2.26406 -4.44859,2.53697 -4.44859,0.72704 z m 35.80336,-1.53858 c 0.81577,-1.31994 7.64109,-1.21707 8.47219,0.12768 0.37021,0.599 -1.51827,1.03164 -4.19664,0.9614 -2.67835,-0.0702 -4.60235,-0.56032 -4.27555,-1.08908 z m -27.05336,-0.90306 c 0,-0.6554 1.45276,-2.20228 3.22836,-3.4375 1.7756,-1.23522 5.1506,-3.851 7.5,-5.81284 2.3494,-1.96185 4.27164,-3.19049 4.27164,-2.73033 0,2.35278 -3.11015,5.97201 -8.05646,9.37517 -5.92879,4.07909 -6.94354,4.45988 -6.94354,2.6055 z m 17.5,-1.61673 c 0,-0.93826 1.40625,-3.61199 3.125,-5.94162 1.71875,-2.32964 3.125,-5.15767 3.125,-6.28452 0,-1.12685 0.35964,-2.40846 0.7992,-2.84802 0.74609,-0.74609 1.06552,-6.71108 2.10426,-39.29409 0.73989,-23.208381 2.08425,-14.98603 1.89977,11.61925 -0.15987,23.05533 -0.47014,26.75355 -2.66485,31.76291 -1.36617,3.1182 -3.24993,6.11929 -4.18615,6.66908 -0.93623,0.54979 -1.70223,1.78221 -1.70223,2.73872 0,0.95652 -0.5625,2.08677 -1.25,2.51167 -0.6875,0.4249 -1.25,0.005 -1.25,-0.93338 z m 16.25,-0.79409 c 0,-0.6875 0.5625,-1.59763 1.25,-2.02254 0.6875,-0.4249 1.25,-0.21003 1.25,0.47747 0,0.6875 -0.5625,1.59763 -1.25,2.02253 -0.6875,0.42491 -1.25,0.21004 -1.25,-0.47746 z m -8.75,-2.4538 c 0,-1.26845 1.15389,-3.35052 2.5642,-4.62684 2.36111,-2.13677 2.97267,-2.17687 7.7212,-0.50623 2.83635,0.99788 5.43019,2.65808 5.76407,3.68933 0.47938,1.48057 0.23562,1.5707 -1.1587,0.42848 -0.97117,-0.79559 -3.7342,-1.63934 -6.14006,-1.875 -3.56175,-0.34889 -4.60362,0.094 -5.60891,2.38402 -1.49416,3.40375 -3.1418,3.66923 -3.1418,0.50624 z m 24.76562,0.20238 c 0.90234,-0.36109 1.98047,-0.31669 2.39584,0.0986 0.41536,0.41538 -0.32292,0.7108 -1.64062,0.65653 -1.45619,-0.06 -1.75238,-0.35618 -0.75522,-0.7552 z m -122.68305,-3.37975 c -1.25528,-1.9158 -1.94274,-3.82287 -1.52768,-4.23792 1.30202,-1.30202 4.70667,3.06522 4.24767,5.44863 -0.36993,1.92091 -0.79082,1.73356 -2.71999,-1.21071 z m 116.64876,0.42593 c -1.70848,-1.31268 -2.51072,-2.39921 -1.78274,-2.4145 1.80655,-0.0379 6.32787,3.3624 5.53077,4.15952 -0.35295,0.35293 -2.03956,-0.43232 -3.74803,-1.74502 z m 77.51867,-3.61852 c 0,-0.64693 0.61548,-1.55661 1.36771,-2.02152 0.75224,-0.46492 1.10893,-2.19904 0.79264,-3.85361 -0.31629,-1.65457 -0.14902,-3.27162 0.3717,-3.59346 1.45678,-0.90034 2.13438,7.97839 0.71705,9.39571 -1.57486,1.57487 -3.2491,1.61242 -3.2491,0.0729 z m -86.7648,-6.64796 c -2.44936,-4.17954 -3.2352,-7.23963 -3.2352,-12.59814 0,-4.31205 0.53704,-7.07768 1.37435,-7.07768 0.87972,0 1.1713,2.03476 0.81014,5.65373 -0.41879,4.19643 0.20042,7.30413 2.40231,12.05666 3.73862,8.06944 2.92174,9.25732 -1.3516,1.96543 z m -113.9116,2.74102 c -0.45316,-0.73323 -0.52379,-1.63331 -0.15694,-2.00017 0.8954,-0.89539 3.33334,0.68228 3.33334,2.15711 0,1.59746 -2.15801,1.49084 -3.1764,-0.15694 z m -9.9486,-2.41684 c -0.4249,-0.6875 -0.17685,-1.25 0.55122,-1.25 0.72808,0 1.32378,0.5625 1.32378,1.25 0,0.6875 -0.24805,1.25 -0.55123,1.25 -0.30317,0 -0.89887,-0.5625 -1.32377,-1.25 z m 223.125,-1.93707 c 0,-1.06324 3.7502,-8.06293 4.31984,-8.06293 0.27811,0 -0.0176,1.82442 -0.6571,4.05425 -0.6395,2.22984 -1.16274,4.19859 -1.16274,4.375 0,0.17642 -0.5625,0.32075 -1.25,0.32075 -0.6875,0 -1.25,-0.30918 -1.25,-0.68707 z m -11.83894,-9.09948 c -0.55927,-3.31033 -0.28365,-6.01841 0.80738,-7.93237 1.5484,-2.71634 1.68163,-2.46595 2.04057,3.83491 0.4714,8.27499 -1.6311,11.29995 -2.84795,4.09746 z m -189.39192,0.72405 c 0.0155,-2.2743 0.25102,-2.4537 1.23086,-0.9375 1.56615,2.42345 1.56615,3.75 0,3.75 -0.6875,0 -1.24139,-1.26562 -1.23086,-2.8125 z m 37.79336,-4.29916 c 1.20312,-0.3144 3.17187,-0.3144 4.375,0 1.20312,0.31442 0.21875,0.57167 -2.1875,0.57167 -2.40625,0 -3.39063,-0.25725 -2.1875,-0.57167 z m 124.10156,-0.27645 c 0.70899,-0.72325 3.24024,-1.64425 5.625,-2.04666 5.18274,-0.87454 2.64707,1.11255 -3.16406,2.47955 -2.61656,0.61551 -3.36039,0.48467 -2.46094,-0.43289 z m -31.28906,-2.61189 c -0.4249,-0.6875 -0.17685,-1.25 0.55122,-1.25 0.72808,0 1.32378,0.5625 1.32378,1.25 0,0.6875 -0.24805,1.25 -0.55123,1.25 -0.30317,0 -0.89887,-0.5625 -1.32377,-1.25 z m -133.75,-5 c -0.4249,-0.6875 -0.21004,-1.25 0.47746,-1.25 0.6875,0 1.59764,0.5625 2.02254,1.25 0.4249,0.6875 0.21004,1.25 -0.47746,1.25 -0.6875,0 -1.59764,-0.5625 -2.02254,-1.25 z m -10,-1.19163 c 2.39964,-1.08718 9.09481,-1.79602 8.02084,-0.84919 -0.28647,0.25255 -2.77084,0.80178 -5.52084,1.22051 -3.48475,0.53062 -4.24238,0.41809 -2.5,-0.37132 z m 222.17504,-3.22784 c -0.59082,-1.05571 -2.72814,-2.41361 -4.74962,-3.01756 l -3.67542,-1.09808 3.34821,-0.10744 c 3.25974,-0.10461 7.27679,2.64556 7.27679,4.98184 0,1.74206 -0.99189,1.39996 -2.19996,-0.75876 z m -108.11254,-1.2944 c -0.51563,-0.52403 -0.9204,-3.24967 -0.89949,-6.05696 0.0306,-4.11414 0.28806,-4.67464 1.32719,-2.88972 1.43381,2.46288 1.05196,10.45049 -0.4277,8.94668 z m 92.47916,-1.94124 c 0.84793,-0.85427 1.85655,-1.23833 2.24142,-0.85348 0.38486,0.38486 -0.30889,1.08381 -1.54167,1.55323 -1.7815,0.67836 -1.92507,0.53477 -0.69975,-0.69974 z M 375.04465,94.983171 c -0.51563,-1.259355 -0.90185,-4.353105 -0.85826,-6.875 0.0741,-4.286738 0.1593,-4.384656 1.30915,-1.503977 0.67645,1.694708 1.06267,4.788458 0.85826,6.875 -0.29786,3.040511 -0.55778,3.33911 -1.30915,1.503977 z m -9.45055,-4.897766 c 0.0925,-2.578125 0.63949,-4.6875 1.21559,-4.6875 1.42233,0 1.293,5.18022 -0.18727,7.5 -0.87177,1.366206 -1.15082,0.603015 -1.02832,-2.8125 z m 8.51305,-9.6875 c 0,-0.6875 0.5625,-1.25 1.25,-1.25 0.6875,0 1.25,0.5625 1.25,1.25 0,0.6875 -0.5625,1.25 -1.25,1.25 -0.6875,0 -1.25,-0.5625 -1.25,-1.25 z m -7.826,-2.361627 c -0.33967,-1.298896 -0.13264,-3.127021 0.46008,-4.0625 0.73267,-1.156407 1.08377,-0.400428 1.09678,2.361627 0.0214,4.547988 -0.62706,5.256456 -1.55686,1.700873 z m 8.64532,-3.098372 c -0.51755,-1.971748 -0.64561,-3.880383 -0.28458,-4.24141 1.0065,-1.006492 2.2369,3.01921 1.70113,5.565893 -0.3506,1.666564 -0.7228,1.318555 -1.41655,-1.324483 z M 362.85715,64.551799 c 0,-1.64384 6.41456,-8.156002 7.23027,-7.340288 0.40002,0.400019 -0.39425,2.229511 -1.76503,4.065537 -2.55047,3.416058 -5.46524,5.162583 -5.46524,3.274751 z m 15.87915,-3.65132 c -1.23523,-1.651415 -1.67689,-3.002574 -0.98149,-3.002574 1.2649,0 4.4217,4.863489 3.64111,5.609633 -0.22757,0.217533 -1.42441,-0.955643 -2.65962,-2.607059 z m 35.68335,356.169571 c -0.85938,-0.34676 -2.26563,-0.34676 -3.125,0 -0.85938,0.34677 -0.15625,0.63049 1.5625,0.63049 1.71875,0 2.42187,-0.28372 1.5625,-0.63049 z m 14.21784,-3.46897 c 9.61871,-3.56747 19.76214,-8.34848 16.09466,-7.58606 -2.0625,0.42876 -6,1.85296 -8.75,3.16488 -2.75,1.31194 -7.25,3.20805 -10,4.21359 -2.75,1.00554 -4.3676,1.86789 -3.59466,1.91634 0.77293,0.0485 3.58543,-0.7205 6.25,-1.70875 z m 24.21966,-9.45318 c 1.03125,-0.66645 1.3125,-1.21171 0.625,-1.21171 -0.6875,0 -2.09375,0.54526 -3.125,1.21171 -1.03125,0.66645 -1.3125,1.21172 -0.625,1.21172 0.6875,0 2.09375,-0.54527 3.125,-1.21172 z m 57.10389,-65.23437 c -0.39903,-0.99716 -0.69523,-0.70098 -0.7552,0.75521 -0.0543,1.3177 0.24116,2.05599 0.65652,1.64063 0.41536,-0.41537 0.45977,-1.4935 0.0986,-2.39584 z m 1.25,-5 c -0.39903,-0.99716 -0.69523,-0.70098 -0.7552,0.75521 -0.0543,1.3177 0.24116,2.05599 0.65652,1.64063 0.41536,-0.41538 0.45977,-1.4935 0.0986,-2.39584 z M 271.60715,238.71664 c 0,-0.2372 -1.26563,-1.50282 -2.8125,-2.8125 l -2.8125,-2.38124 2.38124,2.8125 c 2.23777,2.64306 3.24376,3.38156 3.24376,2.38124 z m -47.13974,-29.76402 c -1.48241,-1.48242 -4.56053,-3.37519 -6.84027,-4.20618 -2.27975,-0.83099 -5.26999,-1.91642 -6.64499,-2.41207 -1.375,-0.49565 1.4375,1.38547 6.25,4.18029 10.07128,5.8488 10.93823,6.14092 7.23526,2.43796 z m -17.15146,-9.49222 c -0.17599,-1.20312 -1.26591,-2.3722 -2.42204,-2.59793 -2.22731,-0.4349 -2.33983,2.2286 -0.16176,3.8288 2.04993,1.50605 2.9233,1.09 2.5838,-1.23087 z m 303.6662,-19.0625 c -0.4249,-0.6875 -1.44248,-1.24138 -2.26127,-1.23086 -0.89452,0.0113 -0.74034,0.50279 0.38627,1.23086 2.4014,1.55192 2.83412,1.55192 1.875,0 z M 566.185,168.8354 c -0.34676,-0.85937 -0.63049,-0.15625 -0.63049,1.5625 0,1.71875 0.28373,2.42188 0.63049,1.5625 0.34676,-0.85937 0.34676,-2.26562 0,-3.125 z M 454.96104,150.16353 c -0.39903,-0.99716 -0.69523,-0.70098 -0.7552,0.75521 -0.0543,1.3177 0.24116,2.05599 0.65652,1.64063 0.41536,-0.41538 0.45977,-1.4935 0.0986,-2.39584 z m 1.25,-5 c -0.39903,-0.99716 -0.69523,-0.70098 -0.7552,0.75521 -0.0543,1.3177 0.24116,2.05599 0.65652,1.64063 0.41536,-0.41538 0.45977,-1.4935 0.0986,-2.39584 z m -2.5,-2.5 c -0.39903,-0.99716 -0.69523,-0.70098 -0.7552,0.75521 -0.0543,1.3177 0.24116,2.05599 0.65652,1.64063 0.41536,-0.41538 0.45977,-1.4935 0.0986,-2.39584 z m -41.19243,-0.52084 c -0.41537,-0.41536 -1.4935,-0.45976 -2.39584,-0.0986 -0.99716,0.39902 -0.70097,0.69522 0.75522,0.7552 1.3177,0.0542 2.05598,-0.24115 1.64062,-0.65653 z m 277.4566,265.31289 c -0.55581,-1.44844 0.10163,-2.25341 2.28853,-2.8023 4.10905,-1.0313 6.48521,-9.0846 4.26324,-14.44894 -0.90197,-2.17754 -1.21258,-6.13572 -0.77284,-9.84861 0.79836,-6.7409 -0.24309,-7.67706 -4.90663,-4.4106 -1.79032,1.25399 -8.01415,2.03439 -20.59063,2.58181 -9.9136,0.43153 -21.68098,1.06119 -26.14973,1.39925 -8.06417,0.61005 -8.16914,0.57623 -14.02075,-4.51839 -7.05736,-6.14437 -8.46442,-10.30027 -8.46761,-25.0099 -0.001,-8.39477 0.51762,-11.47773 2.47466,-14.6875 3.69258,-6.05626 3.5649,-7.14356 1.57795,13.4375 l -0.90507,9.375 -0.80674,-8.125 c -0.73455,-7.39793 -0.792,-7.0942 -0.64209,3.39424 0.13638,9.54126 0.5705,11.90229 2.52824,13.75 1.29996,1.22693 1.97387,1.53408 1.49757,0.68258 -0.58383,-1.04375 -0.22262,-1.30129 1.10864,-0.79044 1.08606,0.41676 2.57764,1.88445 3.31464,3.26154 0.96794,1.8086 0.95829,2.26787 -0.0347,1.65416 -0.75607,-0.46729 -1.37469,-0.38923 -1.37469,0.17348 0,0.56268 1.18386,1.76241 2.6308,2.66604 1.84833,1.15429 2.35425,1.19549 1.70101,0.13852 -0.59708,-0.9661 -0.30842,-1.27868 0.80669,-0.87353 0.95508,0.347 1.64451,1.1231 1.53208,1.72466 -0.21252,1.13712 0.60955,1.14993 28.32942,0.44154 15.82553,-0.40441 16.29196,-0.48459 7.5,-1.289 -9.1575,-0.83786 -9.0995,-0.85005 2.5,-0.52559 10.04009,0.28085 12.50819,-0.0532 15.9728,-2.16177 3.49183,-2.12516 4.40533,-2.2446 6.17744,-0.80769 1.7817,1.44466 1.92567,1.41763 1.00495,-0.18874 -0.59109,-1.03125 -2.6819,-3.94247 -4.64624,-6.46938 -4.09996,-5.27417 -2.75029,-7.4462 2.01079,-3.23598 3.54157,3.13182 4.21616,8.07073 2.61102,19.11622 -0.84548,5.81811 -0.71691,6.30065 1.72789,6.48481 1.45274,0.10937 2.64135,-0.32695 2.64135,-0.96975 0,-2.57734 8.98606,-10.89038 14.01853,-12.96858 2.94606,-1.2166 6.20022,-2.69997 7.23147,-3.29638 6.75106,-3.9044 13.78948,-6.27977 18.125,-6.11692 2.75,0.10325 5.42188,0.0654 5.9375,-0.0844 0.51563,-0.1497 1.37441,-0.34249 1.90843,-0.42843 0.53401,-0.086 3.07597,-2.48628 5.64881,-5.3341 3.25961,-3.608 6.09184,-5.4381 9.34157,-6.03621 2.56503,-0.47209 7.95764,-2.52316 11.98359,-4.55793 7.77594,-3.93006 15.97681,-4.93703 20.49869,-2.517 3.18,1.70189 5.80809,9.09182 4.60787,12.95687 -0.4837,1.55767 -1.93065,4.32521 -3.21546,6.15009 -3.45855,4.91238 -3.03504,9.0384 1.1015,10.731 l 3.4375,1.40656 -3.31811,-0.64582 c -3.11344,-0.60597 -3.44724,-0.20166 -5.41121,6.55415 -1.15529,3.97407 -1.90885,10.04195 -1.68188,13.54305 0.38588,5.95247 0.21875,6.36885 -2.7138,6.76144 -1.71875,0.23009 -3.6875,0.96645 -4.375,1.63636 -0.81329,0.79249 3.02235,1.13384 10.97874,0.97707 6.72581,-0.13253 12.58519,0.1155 13.02084,0.55112 0.43565,0.43567 5.33896,0.88483 10.89626,0.99815 l 10.10416,0.20607 -12.5,0.89712 c -23.22617,1.66694 -35.61609,1.41846 -36.44084,-0.7308 -0.92882,-2.42048 2.95051,-6.82843 6.00958,-6.82843 1.98262,0 2.30626,-1.04106 2.30626,-7.41862 0,-4.08025 0.61924,-9.00213 1.37608,-10.9375 0.75683,-1.93539 1.58538,-6.24038 1.8412,-9.56665 0.25582,-3.32628 1.60533,-7.89268 2.99892,-10.14754 3.40971,-5.51702 3.30779,-11.2458 -0.24434,-13.73381 -4.25682,-2.98159 -9.10312,-2.35595 -18.81616,2.42912 -4.88436,2.40625 -10.20871,4.375 -11.8319,4.375 -3.03961,0 -10.95421,7.43764 -12.2784,11.53845 -0.41637,1.28944 0.94928,4.55857 3.38046,8.09217 3.63222,5.27923 4.08564,6.89085 4.1391,14.71155 0.0486,7.11626 0.60873,9.5521 2.95158,12.83681 1.59035,2.22967 2.54154,4.6203 2.11374,5.3125 -0.87289,1.41236 -10.712,1.67967 -16.82485,0.45711 -5.79424,-1.15885 -2.23879,-2.90581 5.96205,-2.92945 l 6.64248,-0.0191 -2.79118,-4.96625 c -2.54285,-4.52439 -2.64658,-5.40447 -1.16582,-9.89122 1.47362,-4.46508 1.36325,-5.46645 -1.18188,-10.72398 -1.54399,-3.18948 -3.10428,-5.50203 -3.46729,-5.139 -0.36303,0.36302 0.12325,1.60775 1.08059,2.76606 1.58273,1.91499 1.50852,1.96152 -0.81817,0.51296 -1.40733,-0.87617 -3.48601,-3.20862 -4.61926,-5.18321 -1.80676,-3.1481 -2.56909,-3.49425 -6.19121,-2.81119 -2.2719,0.42844 -5.01878,1.54553 -6.10416,2.4824 -3.14453,2.7143 -5.23025,2.19835 -3.34967,-0.8286 0.8652,-1.39261 3.73924,-3.11709 6.38677,-3.83215 2.64752,-0.71507 4.54136,-1.57245 4.20853,-1.90528 -0.80973,-0.80973 -14.77246,4.14162 -16.44932,5.83312 -0.9357,0.94389 -0.62264,1.06767 1.06966,0.42297 1.68891,-0.64342 2.12209,-0.47383 1.47288,0.5766 -0.50583,0.81844 -5.10027,3.47193 -10.20987,5.89665 -7.29131,3.46003 -9.84018,5.40439 -11.84641,9.03684 -5.4613,9.88819 -6.84706,12.15588 -7.89419,12.91824 -0.59677,0.43447 0.0824,1.9574 1.50928,3.38427 2.345,2.345 4.05275,2.59122 17.77026,2.56193 8.34676,-0.0179 15.49571,0.28737 15.88655,0.67822 0.39084,0.39084 -4.86751,0.71399 -11.68521,0.7181 -6.81771,0.004 -16.94694,0.36185 -22.50939,0.79494 -8.6517,0.67361 -10.22627,0.49369 -10.89339,-1.24475 z m 16.28459,-21.12014 c 2.53903,-3.78052 5.89711,-6.49807 11.64513,-9.42386 4.44247,-2.26126 6.67097,-3.74975 4.95222,-3.30774 -5.54891,1.42703 -13.57769,6.73496 -17.02633,11.25635 -1.90674,2.49988 -4.08852,4.12738 -5.04234,3.76136 -1.74976,-0.67144 -2.29707,0.74396 -0.84799,2.19302 1.61342,1.61342 2.78541,0.78272 6.31931,-4.47913 z m 43.4256,-19.61189 c 0.39918,-0.64588 -0.3724,-1.09162 -1.71464,-0.99051 -1.34222,0.10113 -2.16493,0.62956 -1.82823,1.17435 0.83065,1.34403 2.65717,1.24926 3.54287,-0.18384 z M 626.56886,337.2729 c 0,-0.6875 -0.54526,-0.40625 -1.21171,0.625 -0.66645,1.03125 -1.21171,2.4375 -1.21171,3.125 0,0.6875 0.54526,0.40625 1.21171,-0.625 0.66645,-1.03125 1.21171,-2.4375 1.21171,-3.125 z m 298.16329,70.73679 -3.75,-0.84242 4.20881,-0.88269 c 3.24736,-0.68106 4.05573,-1.38285 3.53869,-3.07219 -0.36856,-1.20421 -1.23889,-4.01761 -1.93405,-6.25199 -1.0362,-3.33051 -0.92853,-4.0625 0.59758,-4.0625 1.02383,0 1.49062,-0.60012 1.0373,-1.3336 -0.49253,-0.79693 0.0865,-1.1742 1.43875,-0.9375 1.4632,0.25612 2.86502,-0.83563 3.96656,-3.08922 1.43404,-2.93381 1.43692,-4.71399 0.0181,-11.25 -3.31777,-15.28478 1.6048,-51.65248 8.33356,-61.56785 1.79023,-2.63805 2.96095,-5.56263 2.60161,-6.49906 -0.35934,-0.93644 -0.0973,-1.35895 0.58232,-0.93892 1.89491,1.17112 1.46735,-2.63547 -0.47729,-4.24937 -0.94212,-0.7819 -5.02025,-1.67684 -9.0625,-1.98875 -4.04224,-0.31191 -14.38077,-1.107 -22.97452,-1.76685 -8.59375,-0.65986 -17.20849,-1.80255 -19.14388,-2.53931 -1.93537,-0.73677 -6.15412,-1.33657 -9.375,-1.33289 -7.80805,0.009 -40.87742,-4.85066 -46.84177,-6.88344 -2.60462,-0.8877 -5.83059,-1.32767 -7.16883,-0.97771 -1.33824,0.34995 -3.42595,0.17364 -4.63935,-0.39183 -1.54456,-0.71978 0.043,-1.23327 5.29383,-1.71223 4.125,-0.37627 8.0625,-0.33947 8.75,0.0817 2.09002,1.28062 12.7965,3.63555 15.86602,3.48977 1.58619,-0.0754 0.41568,-0.62175 -2.60115,-1.21427 -5.75605,-1.13055 -7.2876,-1.91772 -6.08026,-3.12504 0.39945,-0.39945 1.78637,-0.15893 3.08205,0.5345 1.29569,0.69342 5.98449,1.70167 10.41956,2.24054 7.51243,0.91277 7.76464,1.04138 3.68878,1.8811 -4.25565,0.87673 -4.23009,0.89421 0.9375,0.6402 2.92187,-0.14363 5.3125,0.17561 5.3125,0.7094 0,0.5338 1.125,0.97053 2.5,0.97053 1.375,0 2.5,-0.57816 2.5,-1.28481 0,-1.70542 15.08127,-0.28075 22.45992,2.1217 3.0717,1.00014 7.85295,1.73131 10.625,1.62485 8.87644,-0.34092 11.75989,0.33705 5.66508,1.33201 -3.89985,0.63665 -1.7506,0.82744 7.0078,0.6221 6.94803,-0.1629 13.22811,-0.66411 13.95573,-1.1138 0.72762,-0.4497 1.5116,-0.30315 1.7422,0.32567 0.2306,0.6288 1.54427,1.33542 2.91927,1.57028 1.83102,0.31274 3.05643,-0.74371 4.57942,-3.948 2.38399,-5.01578 4.52394,-21.8241 2.38716,-18.75 -1.12265,1.6151 -1.30596,1.57178 -1.32245,-0.3125 -0.0105,-1.20307 0.54343,-2.18745 1.23093,-2.18745 1.44381,0 1.6522,-4.96827 0.29336,-6.99421 -1.16254,-1.73325 -9.3911,-3.34046 -15.95142,-3.11565 -5.91555,0.20273 -17.12864,-3.30075 -11.84194,-3.69995 2.99801,-0.22639 2.97926,-0.26806 -0.46155,-1.02557 -1.97261,-0.43429 -9.56636,-0.5349 -16.875,-0.22359 -12.31999,0.52479 -12.74185,0.62305 -5.78845,1.34834 4.125,0.43027 -1.24436,0.59115 -11.93191,0.35752 -10.68754,-0.23364 -21.33779,-0.9714 -23.6672,-1.63946 -2.32943,-0.66807 -4.4937,-0.95627 -4.80951,-0.64048 -0.31581,0.31582 0.20943,0.80909 1.16721,1.09617 10.98957,3.29397 10.89679,3.24685 4.86641,2.47162 -3.09375,-0.39771 -6.1875,-1.06607 -6.875,-1.48522 -0.6875,-0.41916 -2.29586,-0.58975 -3.57414,-0.37909 -1.57059,0.25883 -2.0167,-0.11437 -1.3759,-1.15127 0.73139,-1.1834 -0.88111,-1.33899 -7.05086,-0.68029 -7.90607,0.84406 -7.95549,0.83024 -4.2491,-1.18851 4.00953,-2.18385 15.23771,-2.8023 23.75,-1.30814 2.75,0.4827 6.125,0.7835 7.5,0.66844 4.23931,-0.35477 39.43309,0.1619 50,0.73401 5.5,0.29779 12.28311,0.5558 15.07359,0.57337 2.79047,0.0176 6.15332,0.82148 7.47298,1.78645 2.10365,1.53823 1.01603,1.67195 -8.82358,1.08489 -6.17264,-0.36828 -10.94174,-0.39155 -10.59799,-0.0517 0.34375,0.33982 6.08445,0.98623 12.7571,1.43645 11.5187,0.7772 12.20404,0.68416 13.5549,-1.83994 1.15055,-2.14981 0.80786,-4.36637 -1.79086,-11.58384 -5.57291,-15.47767 -6.32069,-26.97153 -3.18301,-48.92531 1.24676,-8.72347 5.17346,-21.05287 7.65862,-24.04732 0.93495,-1.12653 0.8644,-1.57767 -0.24675,-1.57767 -1.22247,0 -1.21305,-0.41336 0.044,-1.92797 1.3016,-1.56832 1.29594,-2.20958 -0.0304,-3.4375 -1.29142,-1.19568 -1.42616,-1.15094 -0.64803,0.21514 0.66343,1.16471 0.43035,1.54066 -0.71786,1.15792 -1.15899,-0.38634 -1.77684,-3.0917 -1.94085,-8.49846 -0.16645,-5.48654 0.13641,-7.3849 0.98241,-6.15792 0.82553,1.19728 1.06766,-1.6795 0.74499,-8.85121 -0.39072,-8.68402 -1.18639,-12.10927 -4.35554,-18.74999 -2.64404,-5.5404 -3.66265,-9.22723 -3.20215,-11.58997 0.47699,-2.44729 -0.25331,-4.83362 -2.48653,-8.125 -1.96039,-2.88931 -4.19077,-9.409806 -5.86968,-17.160035 -3.88518,-17.934861 -4.11023,-18.351411 -9.71896,-17.989321 -2.57204,0.166046 -8.33268,0.120746 -12.80143,-0.100665 l -8.125,-0.402566 7.5,-0.930557 c 4.125,-0.511806 10.69601,-0.991607 14.60224,-1.066223 l 7.10224,-0.135668 2.10682,9.6875 c 3.87178,17.802981 5.55789,23.413205 8.0565,26.806475 1.3644,1.85294 2.7235,6.07169 3.02021,9.375 0.29673,3.30332 2.05789,10.22478 3.9137,15.38102 3.03801,8.44092 3.31016,10.56254 2.73153,21.29379 -0.48697,9.03108 -0.22057,12.49606 1.09955,14.30142 2.36652,3.23642 2.18942,6.75877 -0.63388,12.60751 -5.40455,11.19605 -6.86839,19.24042 -6.92342,38.04728 -0.0488,16.64138 0.22742,18.91888 3.37323,27.82357 3.8791,10.98036 4.12002,13.24987 1.75043,16.49047 -1.17636,1.60878 -1.50543,4.94733 -1.10406,11.2014 0.56056,8.73475 -2.10124,23.61571 -4.68668,26.20115 -0.65187,0.65188 -0.0543,2.54721 1.44091,4.56949 2.2909,3.09861 2.39387,3.95315 0.99667,8.27225 -0.85699,2.64917 -2.83512,7.06667 -4.39582,9.81667 -6.05402,10.66732 -8.84243,37.81054 -6.24222,60.76347 0.86036,7.59466 0.7089,8.47516 -1.87143,10.8791 -1.95667,1.82291 -2.95277,4.43277 -3.28677,8.61152 -0.26358,3.29775 -0.73058,6.69904 -1.03776,7.55842 -0.60144,1.68255 -0.64715,1.68563 -6.26199,0.42428 z m 14.375,-108.73647 c -2.14051,-1.19717 -15.93811,-3.14677 -14.89617,-2.10483 0.37591,0.37591 3.74071,1.19059 7.47732,1.81038 9.03291,1.49827 9.61239,1.52126 7.41885,0.29445 z m -33.4375,-3.45317 c -0.85937,-0.34676 -2.26562,-0.34676 -3.125,0 -0.85937,0.34677 -0.15625,0.63049 1.5625,0.63049 1.71875,0 2.42188,-0.28372 1.5625,-0.63049 z m -16.23281,-3.80206 c -1.53743,-0.2967 -4.34993,-0.30439 -6.25,-0.017 -1.90008,0.28731 -0.64219,0.53008 2.79531,0.53946 3.4375,0.009 4.99211,-0.2257 3.45469,-0.5224 z m -2.20469,-35.9912 c 0.6875,-0.23734 -1.84375,-0.46731 -5.625,-0.51106 -3.78125,-0.0437 -7.60257,0.38202 -8.49182,0.94616 -1.49112,0.94595 11.25418,0.55313 14.11682,-0.4351 z m 35.23086,138.89698 c -0.38665,-1.00758 -2.00301,-2.08023 -3.59192,-2.38368 -2.54355,-0.48577 -2.47328,-0.57209 0.58779,-0.72196 3.17278,-0.15534 5.99277,2.65194 4.33212,4.3126 -0.34375,0.34375 -0.94135,-0.19939 -1.32799,-1.20696 z m -18.98086,-0.82029 c 1.94951,-0.97581 1.39904,-1.11649 -2.5,-0.63889 -3.46714,0.4247 -4.42517,0.24598 -3.125,-0.58297 1.07101,-0.68284 1.24885,-1.20364 0.41474,-1.21458 -0.80315,-0.01 -2.49065,-0.35345 -3.75,-0.76205 -1.90433,-0.61786 -1.97413,-0.51589 -0.41474,0.60585 2.09155,1.50456 0.19165,1.86181 -3.12757,0.58811 -1.66087,-0.63733 -1.74477,-1.01276 -0.41474,-1.85586 1.12245,-0.71152 0.44185,-1.0569 -2.08269,-1.0569 -2.52604,0 -3.20553,0.34513 -2.08184,1.05744 2.3796,1.5084 -2.60041,2.66856 -10.41816,2.42707 l -6.25,-0.19307 7.5,-0.82972 c 7.32996,-0.81092 7.2591,-0.83168 -3.125,-0.91527 -7.3312,-0.059 -9.65624,0.24248 -7.5,0.97254 2.99709,1.01476 2.9715,1.04803 -0.625,0.8129 -2.23869,-0.14636 -3.62406,-0.87489 -3.4375,-1.80767 0.38633,-1.9316 -1.8037,-2.08889 -2.44155,-0.17536 -0.31881,0.95646 -2.19465,0.74727 -6.04166,-0.67374 l -5.57929,-2.06091 5.625,0.57772 c 5.53214,0.56816 5.55278,0.55669 1.25,-0.69548 -2.40625,-0.70025 -6.45784,-2.13673 -9.00351,-3.1922 -3.71059,-1.53843 -5.69382,-1.65098 -10,-0.56746 -3.46353,0.87149 -7.15408,0.9507 -10.39,0.223 -6.05,-1.36052 -17.31214,-6.2091 -16.44244,-7.0788 0.34201,-0.342 1.85251,0.0367 3.35669,0.84182 1.50416,0.805 3.77865,1.19068 5.05442,0.85707 1.27578,-0.33363 4.65658,0.54966 7.5129,1.96286 4.41968,2.18667 5.79076,2.35341 9.20388,1.11921 5.57801,-2.01704 12.60284,-1.81065 14.45806,0.42476 0.85586,1.03125 2.49974,1.875 3.65305,1.875 1.15333,0 2.67601,0.57907 3.38374,1.28679 2.1356,2.1356 20.40597,3.67473 26.99625,2.27421 4.65792,-0.98986 7.41469,-0.81753 13.02839,0.81442 4.91752,1.42956 9.4705,1.84788 14.71696,1.35216 5.11985,-0.48375 6.78152,-0.34048 5.09661,0.43946 -1.375,0.63649 -4.04687,1.19679 -5.9375,1.2451 -2.01667,0.0515 -3.30834,0.72143 -3.125,1.62069 0.17188,0.84305 -1.09375,1.67711 -2.8125,1.85346 -2.86351,0.2938 -2.91581,0.21593 -0.625,-0.93071 z m 7.21129,-0.82181 c 1.21621,-0.31693 2.90371,-0.29609 3.75,0.0464 0.84629,0.34241 -0.14879,0.60171 -2.21129,0.57624 -2.0625,-0.0255 -2.75492,-0.30563 -1.53871,-0.62255 z M 746.60715,390.3979 c 0,-0.6875 0.87695,-1.25 1.94877,-1.25 1.07183,0 1.60113,0.5625 1.17623,1.25 -0.4249,0.6875 -1.30185,1.25 -1.94877,1.25 -0.64693,0 -1.17623,-0.5625 -1.17623,-1.25 z m -45,-7.95312 c 0,-1.12578 0.5625,-2.04688 1.25,-2.04688 0.6875,0 1.25,-0.77487 1.25,-1.72195 0,-1.90267 3.45383,-5.2409 4.42135,-4.27336 0.33601,0.33601 -1.08382,2.74351 -3.15521,5.35 -2.39218,3.01018 -3.76614,3.99234 -3.76614,2.69219 z m -17.39584,-8.75256 c 0.28647,-0.25063 1.92709,-1.18647 3.64584,-2.07965 2.8585,-1.48547 2.9787,-1.44662 1.40945,0.45568 -0.94356,1.14382 -2.58419,2.07965 -3.64584,2.07965 -1.06165,0 -1.6959,-0.20506 -1.40945,-0.45568 z m 2.39584,-5.79432 c -1.52435,-0.98511 -1.36281,-1.2153 0.86373,-1.23086 1.5063,-0.01 3.08637,0.54336 3.51127,1.23086 0.98359,1.59149 -1.91235,1.59149 -4.375,0 z m 31.08708,-2.11788 c 1.50852,-2.90086 3.71921,-4.7425 4.61616,-3.84555 0.2953,0.2953 -0.94346,1.8985 -2.75281,3.56267 -3.13642,2.88477 -3.22325,2.89794 -1.86335,0.28288 z m 7.03792,-5.38212 c 0.4249,-0.6875 1.0206,-1.25 1.32377,-1.25 0.30318,0 0.55123,0.5625 0.55123,1.25 0,0.6875 -0.5957,1.25 -1.32377,1.25 -0.72808,0 -0.97613,-0.5625 -0.55123,-1.25 z m 23.63215,-21.02631 c -6.46112,-4.68042 -9.25715,-9.07652 -9.25715,-14.55471 0,-3.19801 0.54684,-4.41898 1.97916,-4.41898 1.08855,0 1.72893,0.70313 1.42308,1.5625 -0.56621,1.59095 4.22745,10.997 7.66587,15.04187 1.9226,2.26168 3.55774,2.27263 17.68189,0.11837 6.84986,-1.04476 2.92396,1.77355 -4.41892,3.17224 -3.41334,0.65019 -7.08098,1.52046 -8.15029,1.93396 -1.11935,0.43284 -4.0568,-0.77854 -6.92364,-2.85526 z m 175.94021,-8.97369 c 0,-1.71875 0.28373,-2.42187 0.63049,-1.5625 0.34676,0.85938 0.34676,2.26563 0,3.125 -0.34676,0.85938 -0.63049,0.15625 -0.63049,-1.5625 z m -294.3994,-1.875 c 0.39574,-1.03125 1.2907,-1.875 1.98883,-1.875 0.73164,0 0.61015,0.79427 -0.28679,1.875 -0.85586,1.03125 -1.75084,1.875 -1.98882,1.875 -0.23799,0 -0.10888,-0.84375 0.28678,-1.875 z m 11.70204,-9.36197 c 0,-0.75218 3.79688,-3.10864 8.4375,-5.2366 8.10721,-3.71756 9.39166,-3.91391 32.8125,-5.01574 17.14126,-0.80641 25.99671,-0.73887 29.83955,0.22758 3.0055,0.75587 5.71033,1.12852 6.01073,0.82812 1.54912,-1.54912 -3.70034,-9.75601 -7.96059,-12.44538 -6.53753,-4.12697 -8.28731,-6.51712 -8.15585,-11.14067 0.0615,-2.16319 -0.44878,-4.98057 -1.13396,-6.26085 -0.87687,-1.63844 -0.66893,-4.31211 0.70216,-9.02851 2.42324,-8.33565 2.45439,-11.91169 0.1326,-15.2265 l -1.81536,-2.5918 -15.37214,2.74409 c -8.45468,1.50925 -18.34609,3.95665 -21.98091,5.43866 -11.91745,4.85906 -18.1716,3.1023 -26.50998,-7.44654 l -5.00625,-6.33338 0,-13.61508 c 0,-13.17651 0.1562,-13.95318 4.84899,-24.1107 4.20706,-9.10615 5.97411,-11.42367 13.34785,-17.50587 l 8.49885,-7.01025 17.73188,0.0441 c 9.75253,0.0242 20.27632,-0.59663 23.38619,-1.3797 3.10988,-0.78307 9.32832,-1.23235 13.81875,-0.99837 9.54827,0.4975 9.36878,-0.51289 -1.16136,-6.53763 -3.70474,-2.11964 -7.29509,-4.89872 -7.97852,-6.17576 -0.68345,-1.27708 -1.24263,-5.90264 -1.24263,-10.27909 0,-4.52225 -0.64751,-8.60469 -1.5,-9.45718 -4.08677,-4.08677 -27.54201,-0.33338 -35.87505,5.74084 -5.07131,3.69665 -6.25744,4.00916 -15.21635,4.00916 -9.00721,0 -9.97532,-0.25903 -13.26572,-3.54943 -5.57152,-5.5715 -13.35493,-25.57664 -13.20919,-33.95056 0.13912,-7.99369 6.25542,-22.82668 10.30641,-24.994708 3.1912,-1.707877 3.2068,-0.702193 0.0382,2.466348 -1.46286,1.46286 -2.18,3.37604 -1.75709,4.6875 0.56972,1.76667 0.45812,1.85453 -0.55056,0.4334 -1.99961,-2.81729 -6.98262,14.89381 -5.87465,20.88029 1.62971,8.80555 9.73065,25.61945 13.93794,28.9289 5.10431,4.01505 16.92419,3.66025 23.21132,-0.69673 5.06822,-3.51228 6.33598,-5.13924 2.33687,-2.99898 -3.69636,1.97823 -6.03151,1.69148 -3.78754,-0.4651 4.15487,-3.99309 13.07297,-5.67106 26.42431,-4.97185 13.49708,0.70685 18.7617,2.1754 17.70166,4.93783 -0.3464,0.90268 -0.0642,2.65183 0.62698,3.88701 1.13704,2.03176 1.3242,1.94967 1.9643,-0.86158 0.38912,-1.70903 0.87527,-4.51359 1.08032,-6.23234 0.20505,-1.71875 0.91507,-3.9996 1.5778,-5.06855 3.21435,-5.1845 19.90132,-10.87484 28.24309,-9.63103 2.31654,0.34541 5.45761,0.15937 6.98015,-0.41343 1.54293,-0.58048 3.07125,-0.55118 3.4528,0.0662 0.37651,0.6092 -0.3067,1.36621 -1.51825,1.68224 -1.70939,0.44589 -1.58551,0.60708 0.55306,0.7196 2.24018,0.11787 2.91419,-0.73212 3.60203,-4.5425 1.20235,-6.66059 2.47724,-8.69672 11.0263,-17.61024 11.47689,-11.96616 19.65606,-14.290109 28.9281,-8.21935 2.71574,1.7781 6.49251,5.25385 8.39284,7.72389 3.36535,4.37432 3.43723,4.80527 2.76685,16.58898 -0.5238,9.2072 -0.21452,13.49337 1.29436,17.93766 1.8971,5.58777 1.87211,5.98015 -0.57936,9.09669 -1.40909,1.79136 -2.56198,4.21898 -2.56198,5.39471 0,5.62399 -10.45989,8.11972 -21.16416,5.04979 -6.97848,-2.00141 -16.33584,-13.0386 -16.33584,-19.26845 0,-1.01389 -0.5948,-3.40786 -1.32177,-5.31995 -1.05818,-2.78323 -1.55292,-3.11105 -2.48086,-1.64387 -1.11883,1.76899 -1.32949,1.58535 -1.66612,-1.45239 -0.086,-0.77552 -1.5625,-2.25082 -3.28125,-3.27846 l -3.125,-1.86842 3.125,2.62566 c 3.3421,2.80807 2.11976,3.42531 -2.95919,1.4943 -1.71706,-0.65283 -4.70681,-0.74276 -6.64387,-0.19984 -1.93706,0.54292 -5.20944,0.52259 -7.27194,-0.0452 -2.70439,-0.74446 -5.84121,-0.31243 -11.25,1.54946 -10.69882,3.6829 -15.43519,7.63022 -16.40075,13.66855 -0.43242,2.70422 -1.55977,5.55877 -2.50524,6.34343 -2.44127,2.02608 -2.1307,5.26002 0.87172,9.07697 2.94877,3.74876 1.95883,4.36748 -1.76967,1.10607 -1.37543,-1.20312 -2.10585,-1.51056 -1.62312,-0.6832 0.48271,0.82736 2.64972,2.76611 4.81556,4.30834 2.16585,1.54221 3.5219,2.1309 3.01344,1.3082 -1.05814,-1.7121 0.0153,-1.78544 3.59806,-0.24584 2.5,1.07429 2.5,1.07429 0,1.24138 -2.1914,0.14646 -2.11424,0.33571 0.625,1.53312 1.71875,0.75132 3.58869,1.26423 4.15541,1.1398 0.56673,-0.12437 0.71355,0.28646 0.32627,0.9131 -0.9275,1.50073 1.98185,3.85844 4.31087,3.4935 1.00785,-0.15791 4.9262,-1.77864 8.70745,-3.60159 6.38552,-3.07848 7.54246,-3.24091 16.25,-2.28146 5.15625,0.56815 10.78125,1.67134 12.5,2.45154 2.71929,1.23437 2.39473,1.32757 -2.5,0.71787 -18.71113,-2.33069 -20.34956,-2.25332 -26.5625,1.25433 -6.31793,3.56692 -7.764,6.0717 -3.125,5.41285 1.54688,-0.21969 2.53125,-0.77037 2.1875,-1.22373 -0.96021,-1.26639 5.72174,-6.06095 8.32216,-5.97147 2.09797,0.0721 2.08043,0.173 -0.19716,1.13331 -1.375,0.57975 -3.59545,2.55584 -4.93435,4.39131 -1.33889,1.83548 -4.01076,4.15244 -5.9375,5.14879 -3.81734,1.97402 -4.5669,5.5584 -1.66585,7.96606 1.08916,0.90393 1.75543,3.38395 1.63624,6.09055 -0.11063,2.51115 0.2675,5.69074 0.84017,7.06574 0.98678,2.3693 0.9229,2.38864 -1.2218,0.36981 -1.24466,-1.17161 -2.44272,-3.98411 -2.66237,-6.25 -0.21964,-2.2659 -0.7402,-6.4446 -1.15679,-9.28602 -0.46744,-3.18823 -0.23392,-5.48975 0.60991,-6.01126 0.75204,-0.46479 1.36734,-1.44325 1.36734,-2.17435 0,-0.83824 -0.69264,-0.75445 -1.875,0.22682 -1.13202,0.9395 -1.875,1.04142 -1.875,0.25723 0,-0.71439 0.64688,-1.51452 1.4375,-1.77807 0.79063,-0.26353 1.18739,-1.2295 0.8817,-2.14657 -1.02665,-3.07995 -4.57021,1.90635 -3.88862,5.47185 0.36018,1.88418 0.0381,3.19555 -0.78485,3.19555 -0.76765,0 -1.39573,-1.125 -1.39573,-2.5 0,-2.14367 -0.84627,-2.50553 -5.9375,-2.53883 -3.26562,-0.0214 -9.59375,-0.30895 -14.0625,-0.63908 -9.27331,-0.68506 -17.84714,0.35497 -16.80654,2.03869 0.38724,0.62657 -0.45411,1.13922 -1.86969,1.13922 -1.41557,0 -2.57377,-0.51728 -2.57377,-1.14952 0,-0.63225 -2.6076,-0.97374 -5.79467,-0.75888 -3.67199,0.24757 -5.16015,-0.0112 -4.0625,-0.70632 1.12978,-0.7155 -0.22402,-1.05221 -3.89283,-0.96824 -4.95374,0.11338 -5.1775,0.22985 -1.875,0.97598 l 3.75,0.84722 -5,0.8593 c -2.75,0.47262 -6.59315,2.23939 -8.54034,3.92618 -2.08183,1.80344 -4.3549,2.75432 -5.51756,2.30817 -1.2517,-0.48032 -1.66515,-0.25381 -1.12676,0.61732 0.46774,0.75683 0.26746,1.73635 -0.44506,2.17671 -0.71253,0.44037 -2.98718,3.99486 -5.05478,7.89887 -2.0676,3.90402 -3.46165,5.69197 -3.09787,3.97322 0.36376,-1.71875 -0.44429,-0.72768 -1.79568,2.20237 -1.35139,2.93006 -2.10045,6.25671 -1.66459,7.39256 0.48125,1.25413 0.28794,1.75335 -0.49223,1.27118 -0.81605,-0.50435 -1.55027,2.71691 -2.01259,8.82992 -0.47843,6.3258 -0.26271,9.9114 0.62945,10.46279 0.74651,0.46138 1.01174,1.73939 0.58939,2.84003 -0.9263,2.41391 0.25683,5.98941 1.68902,5.10427 0.56289,-0.34789 2.21848,1.04576 3.67908,3.09699 1.4606,2.05122 4.30465,4.7036 6.32011,5.89416 2.65092,1.56594 3.23935,2.47 2.12745,3.26862 -0.94205,0.67663 -0.32734,0.76187 1.58796,0.22022 1.71875,-0.48608 4.8125,-0.97783 6.875,-1.0928 6.31523,-0.35204 14.69804,-3.49431 12.85704,-4.81943 -1.10258,-0.79361 -0.83511,-0.90311 0.85205,-0.34881 2.8299,0.92973 20.11299,-1.86846 18.33446,-2.96841 -0.648,-0.40076 1.7743,-0.72866 5.38289,-0.72866 3.95586,0 7.49279,0.74451 8.90754,1.875 1.29055,1.03125 -0.1225,-1.02302 -3.14003,-4.56503 -3.01757,-3.54201 -8.2149,-8.60122 -11.54962,-11.2427 -7.1238,-5.64284 -5.60878,-7.38444 1.8584,-2.13631 6.92662,4.86822 15.99701,16.18036 15.71138,19.59449 -0.12535,1.4985 -0.14043,4.29121 -0.0335,6.20602 0.17177,3.07613 0.48548,3.3257 2.6944,2.14353 1.375,-0.73588 2.5,-1.01414 2.5,-0.61837 0,1.62472 -5.47202,7.97418 -6.38562,7.40954 -1.27195,-0.7861 -2.87599,7.61975 -1.7895,9.37771 0.45246,0.73212 1.4926,1.3225 2.3114,1.31198 0.97904,-0.0126 0.8991,-0.39261 -0.23353,-1.11 -1.37535,-0.87115 -0.82511,-2.44084 2.73187,-7.79336 6.79647,-10.22727 11.54812,-14.5321 16.85188,-15.26725 7.48128,-1.03697 28.48645,-0.66087 30.38959,0.54412 1.14204,0.72309 -0.6006,1.11399 -5.02192,1.12649 -8.68177,0.0245 -7.83824,0.74866 1.8463,1.58494 l 7.57545,0.65413 -0.54842,-3.73661 c -0.32992,-2.24789 -0.91333,-3.14615 -1.46435,-2.2546 -0.62683,1.01424 -1.76535,0.40215 -3.60705,-1.93919 -3.10922,-3.95273 -2.51682,-5.6822 0.89022,-2.59887 2.19987,1.99086 2.41017,1.84115 4.34985,-3.09679 1.12101,-2.85384 1.68155,-5.81431 1.24561,-6.57884 -0.43593,-0.76451 -0.32943,-0.97018 0.23666,-0.45702 0.56609,0.51315 2.04046,-0.72978 3.27638,-2.76208 2.40465,-3.95412 8.44975,-7.54035 17.03268,-10.10452 2.92188,-0.87293 5.31404,-1.91998 5.31593,-2.32678 0.001,-0.4068 3.38456,-0.91308 7.51707,-1.12508 8.57569,-0.43994 13.55108,2.12233 16.97394,8.74141 1.7813,3.44466 1.77465,4.34044 -0.0741,9.99275 -1.2647,3.86662 -1.65632,7.23546 -1.03807,8.93009 0.54602,1.49666 1.00459,7.2212 1.01904,12.7212 0.0145,5.5 0.49585,11.77413 1.06976,13.94252 1.03182,3.89854 0.99338,3.94111 -3.44478,3.8153 -3.79447,-0.1075 -5.17878,0.67949 -8.95525,5.09145 -5.32098,6.21638 -11.06808,8.15164 -19.32102,6.50614 -3.09375,-0.61685 -6.02316,-1.14604 -6.50981,-1.17598 -2.09097,-0.12865 -7.24625,-11.23636 -7.32805,-15.78926 -0.0719,-4.00116 -0.29835,-4.43569 -1.24574,-2.39017 -0.8323,1.79702 -0.98453,0.91831 -0.5414,-3.125 0.40765,-3.71957 0.25715,-4.77814 -0.4443,-3.125 -1.04255,2.45702 -1.07542,2.45396 -1.91231,-0.17807 -0.46834,-1.47293 -2.54679,-3.38027 -4.61876,-4.23851 -4.40463,-1.82446 -22.30894,-2.37909 -24.58713,-0.76164 -1.05583,0.74962 -1.5625,0.47863 -1.5625,-0.8357 0,-1.16227 1.38338,-2.1546 3.4375,-2.46577 1.90469,-0.28853 0.65058,-0.5791 -2.8125,-0.65164 -10.06186,-0.21076 -11.76618,1.05295 -24.88032,18.44811 -0.75578,1.0025 0.15342,0.72237 2.02855,-0.625 1.86901,-1.34298 3.41589,-2.91441 3.4375,-3.49206 0.0602,-1.61196 6.78051,-10.76781 7.92555,-10.79804 0.5562,-0.0146 0.60886,0.62443 0.117,1.42022 -0.62236,1.00698 -0.006,1.2148 2.02511,0.68348 l 2.91935,-0.76343 -3.03639,2.88251 c -1.7591,1.66995 -3.37423,2.36305 -3.83952,1.64765 -1.00696,-1.54828 -3.57184,3.07666 -3.57184,6.44072 0,1.6164 -1.76522,3.49431 -4.98639,5.30471 -4.6692,2.62424 -7.43305,6.60468 -5.75275,8.28499 0.40653,0.40653 0.73914,-0.19837 0.73914,-1.3442 0,-1.14584 0.62267,-2.08334 1.38374,-2.08334 0.76105,0 1.08474,0.77918 0.7193,1.7315 -0.36545,0.95233 0.117,2.84718 1.07212,4.2108 0.95512,1.36362 1.33457,2.92407 0.8432,3.46767 -0.49135,0.5436 0.21449,0.58776 1.56854,0.0981 1.35404,-0.48962 2.11004,-0.53837 1.67999,-0.10837 -0.43005,0.43006 1.18939,2.58848 3.59876,4.79651 3.48324,3.19215 4.51679,5.22216 5.04508,9.90915 0.76111,6.75259 0.15947,7.0433 -8.3575,4.03834 -4.39252,-1.54977 -9.52608,-1.68623 -31.09465,-0.82658 l -25.83358,1.02965 -7.1875,4.01688 c -3.95312,2.20928 -7.1875,3.40146 -7.1875,2.6493 z m 65.43135,-28.19194 c -0.40711,-1.0609 -1.00829,-1.66082 -1.33594,-1.33316 -0.32766,0.32766 -0.22497,1.19567 0.22819,1.92891 1.23256,1.99433 1.95298,1.60689 1.10775,-0.59575 z m 90.07675,-6.82109 c 3.63465,-3.4375 7.67911,-6.24982 8.98768,-6.24962 2.18165,3.5e-4 2.36293,-0.95981 2.18315,-11.5625 -0.10788,-6.35958 -0.59095,-12.54996 -1.07357,-13.75641 -0.83055,-2.07625 -0.55667,-4.98818 1.35004,-14.35425 0.71329,-3.50382 0.2341,-4.63771 -3.56569,-8.4375 -2.41433,-2.41434 -5.46886,-4.38972 -6.78783,-4.38972 -3.56038,0 -14.99853,3.53093 -23.1474,7.14554 -6.45913,2.86508 -7.48227,3.86154 -10.3125,10.0436 -3.68997,8.05993 -4.15138,15.87175 -1.04033,17.61279 2.23135,1.24871 5.33393,9.98091 5.39994,15.19807 0.06,4.74749 5.19835,12.8932 8.75781,13.88377 8.5876,2.38983 12.35644,1.38466 19.2487,-5.13377 z M 646.7666,198.2104 c 1.55484,-1.98257 1.51063,-2.02678 -0.47195,-0.47194 -2.08219,1.63296 -2.74435,2.65944 -1.71555,2.65944 0.25956,0 1.24394,-0.98437 2.1875,-2.1875 z m 13.48639,-9.94943 c 0.28645,-0.19969 -0.016,-0.36307 -0.67223,-0.36307 -0.65617,0 -3.14055,1.72809 -5.52082,3.84019 l -4.32779,3.8402 5,-3.47714 c 2.75,-1.91241 5.23438,-3.6405 5.52084,-3.84018 z m 44.16666,-2.44092 c -0.85937,-0.34676 -2.26562,-0.34676 -3.125,0 -0.85937,0.34677 -0.15625,0.63049 1.5625,0.63049 1.71875,0 2.42188,-0.28372 1.5625,-0.63049 z m 15,0 c -0.85937,-0.34676 -2.26562,-0.34676 -3.125,0 -0.85937,0.34677 -0.15625,0.63049 1.5625,0.63049 1.71875,0 2.42188,-0.28372 1.5625,-0.63049 z m -14.44626,-23.83586 c -0.31693,-1.21621 -0.59708,-0.52379 -0.62255,1.53871 -0.0255,2.0625 0.23382,3.05758 0.57624,2.21129 0.3424,-0.84629 0.36323,-2.53379 0.0464,-3.75 z m 91.71594,2.11974 c 1.3298,-0.71169 2.41782,-2.55529 2.41782,-4.09688 0,-1.54158 0.88361,-4.06442 1.96359,-5.60631 1.56381,-2.23264 1.69542,-3.6254 0.64642,-6.84062 -1.57911,-4.84004 -2.10453,-20.28242 -0.83931,-24.66716 1.26265,-4.37579 -5.1642,-12.99705 -12.25805,-16.44351 -5.32319,-2.5862 -5.53898,-2.59373 -11.29764,-0.39448 -6.30267,2.40701 -16.81481,12.84391 -20.46118,20.31475 l -1.99959,4.09681 5.87289,5.39189 c 3.86236,3.54604 5.87688,6.42277 5.8846,8.40318 0.0158,4.03944 6.55876,15.23974 10.35642,17.72807 1.67736,1.09903 5.51509,2.21723 8.5283,2.48486 3.0132,0.26764 6.21865,0.58487 7.12323,0.70499 0.90457,0.12012 2.7327,-0.3639 4.0625,-1.07559 z M 675.01861,148.39269 c -0.41536,-0.41536 -1.4935,-0.45976 -2.39583,-0.0986 -0.99717,0.39902 -0.70098,0.69522 0.75521,0.7552 1.3177,0.0542 2.05599,-0.24115 1.64062,-0.65653 z m 6.92483,-1.31471 c -0.84629,-0.3424 -2.53379,-0.36324 -3.75,-0.0462 -1.21621,0.31692 -0.52379,0.59707 1.53871,0.62255 2.0625,0.0255 3.05758,-0.23383 2.21129,-0.57624 z m 31.07316,-3.86758 c 1.55484,-1.98257 1.51063,-2.02678 -0.47195,-0.47195 -1.20312,0.94357 -2.1875,1.92794 -2.1875,2.18751 0,1.02879 1.02649,0.36663 2.65945,-1.71556 z m 8.48639,-4.85681 c 1.7154,-1.50083 -2.35318,-0.10704 -4.34443,1.48827 -2.28789,1.83297 -2.248,1.859 0.69859,0.45569 1.71875,-0.81856 3.35938,-1.69334 3.64584,-1.94396 z m 22.91666,-2.53354 c -0.85937,-0.34676 -2.26562,-0.34676 -3.125,0 -0.85937,0.34677 -0.15625,0.63049 1.5625,0.63049 1.71875,0 2.42188,-0.28372 1.5625,-0.63049 z m -7.47621,-1.24207 c -0.84629,-0.3424 -2.53379,-0.36324 -3.75,-0.0463 -1.21621,0.31693 -0.52379,0.59708 1.53871,0.62255 2.0625,0.0255 3.05758,-0.23383 2.21129,-0.57623 z m -65.57066,178.71604 c 0.90233,-0.36109 1.98047,-0.31669 2.39583,0.0986 0.41537,0.41536 -0.32292,0.7108 -1.64062,0.65653 -1.45619,-0.06 -1.75238,-0.35618 -0.75521,-0.7552 z m 66.79305,-0.69715 c 0.66903,-2.00712 8.31971,-6.48724 9.33846,-5.46849 1.2613,1.2613 -4.86581,7.01953 -7.4692,7.01953 -1.34406,0 -2.16046,-0.67743 -1.86926,-1.55104 z m 166.66571,-0.51569 c -0.92108,-2.4003 0.13355,-4.18328 2.47439,-4.18328 2.32696,0 2.35175,4.52128 0.0296,5.41234 -0.97435,0.37389 -2.10117,-0.17919 -2.50406,-1.22906 z m 35.52561,0.34477 c 0,-0.25956 0.85663,-1.18287 1.90361,-2.05179 1.59169,-1.32098 1.7746,-1.24365 1.11626,0.47195 -0.67236,1.75216 -3.01987,2.98027 -3.01987,1.57984 z M 735.46711,309.7729 c 0.2091,-3.59225 4.79515,-8.68195 9.1955,-10.20538 5.78044,-2.00125 7.0826,-1.51883 2.25515,0.83547 -1.88958,0.92154 -5.25537,3.68801 -7.47951,6.14771 -2.22415,2.45972 -4.01116,3.9097 -3.97114,3.22221 z m 18.64004,-5.59387 c -1.71875,-0.53333 -4.53125,-0.713 -6.25,-0.3993 -2.47296,0.45138 -2.73378,0.29246 -1.25,-0.76158 2.64619,-1.8798 6.60614,-1.68492 9.44859,0.465 2.69417,2.03778 2.54623,2.0906 -1.94859,0.69588 z m -26.17175,-5.12715 c -2.3632,-1.98119 -4.04711,-3.85179 -3.742,-4.15689 0.3051,-0.30511 2.51629,1.0462 4.91375,3.00291 2.39746,1.95672 4.08136,3.82732 3.74201,4.15689 -0.33936,0.32959 -2.55055,-1.02172 -4.91376,-3.00291 z m 142.398,1.94241 c -1.32098,-1.59169 -1.24365,-1.7746 0.47195,-1.11626 1.12849,0.43304 2.0518,1.28966 2.0518,1.90361 0,1.60745 -0.72359,1.3817 -2.52375,-0.78735 z m -56.19005,-15.54756 c -1.01134,-0.63959 -1.51372,-1.48796 -1.11641,-1.88529 0.98468,-0.98469 4.83021,0.58386 4.83021,1.9702 0,1.42473 -1.37648,1.39326 -3.7138,-0.0849 z m 19.72943,-2.15271 c 0.90233,-0.36109 1.98047,-0.31669 2.39583,0.0986 0.41536,0.41536 -0.32292,0.7108 -1.64062,0.65653 -1.45619,-0.06 -1.75238,-0.35618 -0.75521,-0.7552 z m 75,-25 c 0.90233,-0.36109 1.98047,-0.31669 2.39583,0.0986 0.41536,0.41536 -0.32292,0.7108 -1.64062,0.65653 -1.45619,-0.06 -1.75238,-0.35618 -0.75521,-0.7552 z m -192.96422,-2.31087 c 1.33453,-1.00938 3.30328,-1.81736 4.375,-1.7955 1.55783,0.0318 1.462,0.40779 -0.47782,1.875 -1.33453,1.00939 -3.30328,1.81737 -4.375,1.7955 -1.55783,-0.0317 -1.462,-0.40778 0.47782,-1.875 z m -50.78578,-0.18913 c 0.90233,-0.36109 1.98047,-0.31669 2.39583,0.0986 0.41537,0.41536 -0.32292,0.7108 -1.64062,0.65653 -1.45619,-0.06 -1.75238,-0.35618 -0.75521,-0.7552 z m 155.72768,-0.18304 c 0.69238,-1.12028 11.79695,-0.83948 12.96425,0.32782 0.39001,0.39 -2.51159,0.7091 -6.448,0.7091 -3.93641,0 -6.86872,-0.46661 -6.51625,-1.03692 z m -100.98244,-5.74143 c 0.85713,-2.23361 3.92875,-3.48511 4.8591,-1.97977 0.38503,0.62297 -0.40372,1.72341 -1.75278,2.44541 -3.27448,1.75244 -3.92032,1.65564 -3.10632,-0.46564 z m 199.37455,-0.79448 c -3.09051,-2.57373 -3.0768,-4.24774 0.025,-3.05745 1.97272,0.757 5.40107,5.65398 3.91261,5.5887 -0.52145,-0.0229 -2.2934,-1.16194 -3.93767,-2.53125 z m -21.92113,-1.89145 c -3.708,-3.708 -1.68518,-3.39965 4.28571,0.65328 1.62528,1.1032 1.59554,1.27527 -0.22321,1.29187 -1.15403,0.01 -2.98215,-0.86479 -4.0625,-1.94515 z m -29.46429,-0.53572 c 2.44796,-1.58199 4.10273,-1.58199 3.125,0 -0.4249,0.6875 -1.72372,1.24139 -2.88628,1.23087 -1.82158,-0.0165 -1.85458,-0.18662 -0.23872,-1.23087 z m 47.5,-6.32377 c 0,-0.72808 0.5625,-0.97613 1.25,-0.55123 0.6875,0.42491 1.25,1.0206 1.25,1.32378 0,0.30317 -0.5625,0.55122 -1.25,0.55122 -0.6875,0 -1.25,-0.5957 -1.25,-1.32377 z M 727.44049,173.31457 c -0.45834,-0.45833 -0.81624,-1.72395 -0.79533,-2.8125 0.0312,-1.62538 0.27514,-1.57138 1.36458,0.30208 1.34597,2.31462 0.95576,4.03544 -0.56925,2.51042 z m 211.14814,-8.85185 c -0.85898,-0.85898 -20.03344,-2.04888 -28.85648,-1.79074 -23.88984,0.69897 -50.32944,0.32289 -56.80939,-0.80806 -6.75666,-1.17925 -8.38898,-1.10834 -10.09842,0.43868 -2.72835,2.46913 -4.44963,2.359 -2.3662,-0.15138 1.49534,-1.80178 0.99167,-1.91647 -5.15944,-1.17493 -5.73679,0.69159 -8.00456,0.3051 -14.31655,-2.43996 -7.26934,-3.1614 -6.29771,-3.46474 3.91667,-1.22274 2.74605,0.60275 3.14522,0.47371 1.70833,-0.55222 -1.49694,-1.06882 -1.18189,-1.28628 1.5625,-1.07848 3.39301,0.25691 4.61745,1.61336 2.1875,2.42335 -0.6875,0.22916 4.63526,0.41666 11.82837,0.41666 7.1931,0 12.11498,-0.38233 10.9375,-0.84963 -1.17748,-0.46732 -1.48375,-0.88919 -0.68061,-0.9375 2.56965,-0.15461 5.42349,1.3867 4.70879,2.54311 -0.38038,0.61546 0.60722,1.11041 2.19467,1.09989 2.13275,-0.0141 2.43592,-0.30439 1.1612,-1.11175 -1.02635,-0.65006 2.51777,-0.86394 8.75,-0.52805 19.58568,1.05557 68.63983,0.0545 71.07495,-1.45054 1.06284,-0.65686 1.40745,-0.40591 1.02717,0.74798 -0.37818,1.14747 -3.29523,1.9485 -8.59967,2.3615 l -8.02737,0.625 10.454,0.829 c 10.70145,0.84861 17.36071,3.546 8.75434,3.546 -2.42918,0 -4.8375,-0.42084 -5.35187,-0.93519 z m -72.32002,-3.57003 c -0.41536,-0.41536 -1.4935,-0.45976 -2.39583,-0.0986 -0.99717,0.39902 -0.70098,0.69522 0.75521,0.7552 1.3177,0.0542 2.05599,-0.24115 1.64062,-0.65653 z m 34.40104,-0.0726 c -0.85937,-0.34677 -2.26562,-0.34677 -3.125,0 -0.85937,0.34676 -0.15625,0.63048 1.5625,0.63048 1.71875,0 2.42188,-0.28372 1.5625,-0.63048 z m -24.97621,-1.24208 c -0.84629,-0.3424 -2.53379,-0.36323 -3.75,-0.0462 -1.21621,0.31693 -0.52379,0.59708 1.53871,0.62255 2.0625,0.0255 3.05758,-0.23382 2.21129,-0.57624 z m 30.57517,0.0648 c -0.41536,-0.41536 -1.4935,-0.45976 -2.39583,-0.0986 -0.99717,0.39902 -0.70098,0.69522 0.75521,0.7552 1.3177,0.0542 2.05599,-0.24115 1.64062,-0.65653 z m 14.41823,-0.12475 c -1.53743,-0.2967 -4.34993,-0.30439 -6.25,-0.017 -1.90008,0.28731 -0.64219,0.53008 2.79531,0.53946 3.4375,0.01 4.99211,-0.22569 3.45469,-0.5224 z m -36.25,-1.26706 c 1.90007,-0.28733 4.71257,-0.27964 6.25,0.017 1.53742,0.2967 -0.0171,0.53178 -3.45469,0.5224 -3.4375,-0.01 -4.69539,-0.25215 -2.79531,-0.53946 z m 61.54531,-0.35303 c 0.4249,-0.6875 1.0206,-1.25 1.32378,-1.25 0.30317,0 0.55122,0.5625 0.55122,1.25 0,0.6875 -0.5957,1.25 -1.32378,1.25 -0.72807,0 -0.97612,-0.5625 -0.55122,-1.25 z M 696.47173,136.78676 c -1.64427,-1.33301 -2.55208,-2.8627 -2.01735,-3.39931 0.53472,-0.53661 2.19097,0.24309 3.68055,1.73268 3.51652,3.51653 2.22055,4.81518 -1.6632,1.66663 z m 134.47738,-6.5993 c 4.56794,-3.58182 11.29465,-6.02829 16.28304,-5.92205 4.2842,0.0912 3.28928,0.58668 -3.4375,1.71177 -7.41371,1.23998 -5.62451,3.30269 2.07939,2.39725 6.90603,-0.81167 15.73306,0.18004 15.73317,1.76762 3e-5,0.48447 -6.60935,0.88452 -14.6875,0.88899 -8.07816,0.005 -15.81256,0.47228 -17.18756,1.03956 -1.46272,0.60347 -0.9578,-0.17786 1.21696,-1.88314 z m -81.17794,-0.15597 c -0.53507,-1.23277 -0.62212,-2.59215 -0.19345,-3.02083 1.26937,-1.26936 2.29262,0.51368 1.70838,2.97691 -0.51794,2.18368 -0.58532,2.18563 -1.51493,0.0439 z m 194.25589,-2.96922 c -0.69751,-1.83459 -2.22957,-4.0386 -3.40458,-4.89779 -1.17502,-0.8592 -1.70959,-1.98897 -1.18796,-2.51062 1.14527,-1.14526 4.11119,2.58633 5.80736,7.30655 1.58937,4.42306 0.46398,4.51743 -1.21482,0.10187 z m -69.91991,0.11458 c 5.84375,-0.91129 12.59375,-1.96862 15,-2.34961 l 4.375,-0.69271 -5,2.41398 c -3.71144,1.79187 -7.57714,2.3974 -15,2.34961 l -10,-0.0644 10.625,-1.6569 z m -247.40131,-3.75811 c 0.06,-1.45618 0.35617,-1.75238 0.7552,-0.75521 0.36108,0.90234 0.31669,1.98047 -0.0986,2.39583 -0.41536,0.41537 -0.7108,-0.32291 -0.65652,-1.64062 z m 273.02631,0.72917 c -0.47412,-0.76715 1.54968,-1.25 5.2392,-1.25 5.88079,0 19.8984,-2.53437 24.65335,-4.45729 1.65739,-0.67025 2.12129,-0.52863 1.50972,0.46089 -0.48554,0.78565 -3.24969,2.06446 -6.14255,2.84179 -2.89285,0.77733 -5.6816,2.05824 -6.19722,2.84647 -0.68886,1.05305 -1.21364,1.0059 -1.97871,-0.17781 -0.78454,-1.21381 -1.88312,-1.29085 -4.45638,-0.3125 -4.3438,1.65151 -11.61941,1.67943 -12.62741,0.0485 z m 38.75,-7.5 c 0.4249,-0.6875 1.0206,-1.25 1.32378,-1.25 0.30317,0 0.55122,0.5625 0.55122,1.25 0,0.6875 -0.5957,1.25 -1.32378,1.25 -0.72807,0 -0.97612,-0.5625 -0.55122,-1.25 z m -199.375,-10.13224 c 0,-1.3507 4.61409,-1.50385 5.43127,-0.18026 0.31837,0.51562 -0.77344,1.01862 -2.42622,1.11776 -1.65278,0.0991 -3.00505,-0.32273 -3.00505,-0.9375 z M 723.93497,95.085405 c -2.14273,-3.99065 -4.58479,-16.451817 -4.03294,-20.579002 l 0.46577,-3.483498 -1.70593,3.622253 c -1.53305,3.255156 -2.42637,3.675587 -8.81477,4.148516 -8.30174,0.61457 -16.49347,3.251847 -16.06745,5.172809 0.17006,0.766817 -0.5871,1.001997 -1.76755,0.549013 -1.38704,-0.532256 -1.76784,-0.31151 -1.15979,0.672327 0.56034,0.906647 -0.34511,1.940157 -2.37632,2.712423 -4.64946,1.767725 -5.53725,1.46971 -1.86884,-0.627341 3.99303,-2.28262 3.1383,-2.292479 -3.125,-0.03605 -2.75,0.990721 -6.6875,1.795753 -8.75,1.788957 -3.0144,-0.0099 -2.40139,-0.449782 3.125,-2.242283 3.78125,-1.226462 10.64841,-4.008712 15.26038,-6.182779 4.61195,-2.174068 10.23695,-3.973079 12.5,-3.997804 l 4.11462,-0.04495 -3.4375,-2.814501 c -1.89062,-1.547976 -3.4375,-3.439394 -3.4375,-4.20315 0,-1.709599 118.01123,-2.112216 121.875,-0.415799 1.49018,0.654274 -18.58977,1.133133 -49.71161,1.185501 l -52.21161,0.08786 0.54907,8.4375 c 0.65438,10.055586 1.59551,12.88893 3.9776,11.974836 0.97435,-0.373895 1.77155,-0.104 1.77155,0.599762 0,0.703762 -0.70313,1.516219 -1.5625,1.805458 -1.21814,0.409989 -1.1844,0.983926 0.15305,2.604168 1.47376,1.785355 1.43591,2.078276 -0.26851,2.078276 -1.09125,0 -2.66364,-1.265625 -3.49422,-2.8125 z M 711.39308,73.019629 c -0.90052,-1.441949 -2.32564,-2.621724 -3.16694,-2.621724 -0.8474,0 -0.29514,1.282621 1.23817,2.875691 3.3238,3.453315 4.17408,3.341355 1.92877,-0.253967 z m 4.77323,-2.229223 c -0.35356,-0.353562 -1.24427,-0.271126 -1.97937,0.18319 -0.9313,0.575575 -0.8701,1.655785 0.20186,3.562669 l 1.5384,2.73664 0.44098,-2.91983 c 0.24253,-1.605906 0.15169,-3.209107 -0.20187,-3.562669 z m -69.79353,20.003607 c 0.90233,-0.361089 1.98047,-0.316681 2.39583,0.09869 0.41537,0.415365 -0.32292,0.710801 -1.64062,0.656525 -1.45619,-0.05998 -1.75238,-0.356176 -0.75521,-0.755209 z m 9.60937,-0.396108 c 1.375,-0.590857 3.34375,-1.074286 4.375,-1.074286 1.18185,0 0.9508,0.397142 -0.625,1.074286 -1.375,0.590858 -3.34375,1.074286 -4.375,1.074286 -1.18185,0 -0.9508,-0.397142 0.625,-1.074286 z M 729.9065,74.530589 c -1.40772,-1.40773 -0.85736,-2.882684 1.07565,-2.882684 1.03125,0 1.875,0.529303 1.875,1.176229 0,1.576222 -1.95199,2.705119 -2.95065,1.706455 z"
         id="path5959"
         inkscape:connector-curvature="0" />
      <rect
         y="-44.780651"
         x="608.57141"
         height="657.14288"
         width="460"
         id="rect4147"
         style="opacity:1;fill:#ffffff;fill-opacity:1;stroke:none;stroke-width:1;stroke-miterlimit:4;stroke-dasharray:1, 1;stroke-dashoffset:0;stroke-opacity:1" />
      <rect
         y="455.21936"
         x="205.71429"
         height="162.85715"
         width="354.28571"
         id="rect4164"
         style="opacity:1;fill:#ffffff;fill-opacity:1;stroke:none;stroke-width:1;stroke-miterlimit:4;stroke-dasharray:1, 1;stroke-dashoffset:0;stroke-opacity:1" />
    </g>
  </g>
</svg>
